<svg xmlns="http://www.w3.org/2000/svg" width="3270" height="605"><g transform="translate(695,30)"><path class="link" d="M0,0C0,40 -475,40 -475,80" style="opacity: 1; fill: none; stroke: rgb(204, 204, 204);"/><path class="link" d="M0,0C0,40 0,40 0,80" style="opacity: 1; fill: none; stroke: rgb(204, 204, 204);"/><path class="link" d="M0,0C0,40 475,40 475,80" style="opacity: 1; fill: none; stroke: rgb(204, 204, 204);"/><path class="link" d="M-475,80C-475,120 -675,120 -675,160" style="opacity: 1; fill: none; stroke: rgb(204, 204, 204);"/><path class="link" d="M-475,80C-475,120 -625,120 -625,160" style="opacity: 1; fill: none; stroke: rgb(204, 204, 204);"/><path class="link" d="M-475,80C-475,120 -575,120 -575,160" style="opacity: 1; fill: none; stroke: rgb(204, 204, 204);"/><path class="link" d="M-475,80C-475,120 -525,120 -525,160" style="opacity: 1; fill: none; stroke: rgb(204, 204, 204);"/><path class="link" d="M-475,80C-475,120 -275,120 -275,160" style="opacity: 1; fill: none; stroke: rgb(204, 204, 204);"/><path class="link" d="M-525,160C-525,200 -525,200 -525,240" style="opacity: 1; fill: none; stroke: rgb(204, 204, 204);"/><path class="link" d="M475,80C475,120 -175,120 -175,160" style="opacity: 1; fill: none; stroke: rgb(204, 204, 204);"/><path class="link" d="M475,80C475,120 -125,120 -125,160" style="opacity: 1; fill: none; stroke: rgb(204, 204, 204);"/><path class="link" d="M475,80C475,120 425,120 425,160" style="opacity: 1; fill: none; stroke: rgb(204, 204, 204);"/><path class="link" d="M475,80C475,120 975,120 975,160" style="opacity: 1; fill: none; stroke: rgb(204, 204, 204);"/><path class="link" d="M475,80C475,120 1025,120 1025,160" style="opacity: 1; fill: none; stroke: rgb(204, 204, 204);"/><path class="link" d="M-125,160C-125,200 0,200 0,240" style="opacity: 1; fill: none; stroke: rgb(204, 204, 204);"/><path class="link" d="M975,160C975,200 250,200 250,240" style="opacity: 1; fill: none; stroke: rgb(204, 204, 204);"/><path class="link" d="M975,160C975,200 925,200 925,240" style="opacity: 1; fill: none; stroke: rgb(204, 204, 204);"/><path class="link" d="M975,160C975,200 1550,200 1550,240" style="opacity: 1; fill: none; stroke: rgb(204, 204, 204);"/><path class="link" d="M975,160C975,200 1600,200 1600,240" style="opacity: 1; fill: none; stroke: rgb(204, 204, 204);"/><path class="link" d="M1550,240C1550,280 2425,280 2425,320" style="opacity: 1; fill: none; stroke: rgb(204, 204, 204);"/><path class="link" d="M-475,80C-475,120 -475,120 -475,160" style="opacity: 1; fill: none; stroke: rgb(204, 204, 204);"/><path class="link" d="M-475,80C-475,120 -425,120 -425,160" style="opacity: 1; fill: none; stroke: rgb(204, 204, 204);"/><path class="link" d="M-475,80C-475,120 -375,120 -375,160" style="opacity: 1; fill: none; stroke: rgb(204, 204, 204);"/><path class="link" d="M-475,80C-475,120 -325,120 -325,160" style="opacity: 1; fill: none; stroke: rgb(204, 204, 204);"/><path class="link" d="M475,80C475,120 1075,120 1075,160" style="opacity: 1; fill: none; stroke: rgb(204, 204, 204);"/><path class="link" d="M475,80C475,120 1125,120 1125,160" style="opacity: 1; fill: none; stroke: rgb(204, 204, 204);"/><path class="link" d="M-125,160C-125,200 -250,200 -250,240" style="opacity: 1; fill: none; stroke: rgb(204, 204, 204);"/><path class="link" d="M-125,160C-125,200 -200,200 -200,240" style="opacity: 1; fill: none; stroke: rgb(204, 204, 204);"/><path class="link" d="M-125,160C-125,200 -125,200 -125,240" style="opacity: 1; fill: none; stroke: rgb(204, 204, 204);"/><path class="link" d="M-125,160C-125,200 -50,200 -50,240" style="opacity: 1; fill: none; stroke: rgb(204, 204, 204);"/><path class="link" d="M-200,240C-200,280 -200,280 -200,320" style="opacity: 1; fill: none; stroke: rgb(204, 204, 204);"/><path class="link" d="M-50,240C-50,280 -100,280 -100,320" style="opacity: 1; fill: none; stroke: rgb(204, 204, 204);"/><path class="link" d="M-50,240C-50,280 -50,280 -50,320" style="opacity: 1; fill: none; stroke: rgb(204, 204, 204);"/><path class="link" d="M-50,240C-50,280 0,280 0,320" style="opacity: 1; fill: none; stroke: rgb(204, 204, 204);"/><path class="link" d="M-50,320C-50,360 0,360 0,400" style="opacity: 1; fill: none; stroke: rgb(204, 204, 204);"/><path class="link" d="M-50,320C-50,360 50,360 50,400" style="opacity: 1; fill: none; stroke: rgb(204, 204, 204);"/><path class="link" d="M-50,320C-50,360 100,360 100,400" style="opacity: 1; fill: none; stroke: rgb(204, 204, 204);"/><path class="link" d="M50,400C50,440 50,440 50,480" style="opacity: 1; fill: none; stroke: rgb(204, 204, 204);"/><path class="link" d="M50,480C50,520 50,520 50,560" style="opacity: 1; fill: none; stroke: rgb(204, 204, 204);"/><path class="link" d="M975,160C975,200 300,200 300,240" style="opacity: 1; fill: none; stroke: rgb(204, 204, 204);"/><path class="link" d="M300,240C300,280 350,280 350,320" style="opacity: 1; fill: none; stroke: rgb(204, 204, 204);"/><path class="link" d="M1550,240C1550,280 850,280 850,320" style="opacity: 1; fill: none; stroke: rgb(204, 204, 204);"/><path class="link" d="M1550,240C1550,280 950,280 950,320" style="opacity: 1; fill: none; stroke: rgb(204, 204, 204);"/><path class="link" d="M1550,240C1550,280 2550,280 2550,320" style="opacity: 1; fill: none; stroke: rgb(204, 204, 204);"/><path class="link" d="M950,320C950,360 950,360 950,400" style="opacity: 1; fill: none; stroke: rgb(204, 204, 204);"/><path class="link" d="M-50,320C-50,360 -200,360 -200,400" style="opacity: 1; fill: none; stroke: rgb(204, 204, 204);"/><path class="link" d="M-50,320C-50,360 -150,360 -150,400" style="opacity: 1; fill: none; stroke: rgb(204, 204, 204);"/><path class="link" d="M-50,320C-50,360 -100,360 -100,400" style="opacity: 1; fill: none; stroke: rgb(204, 204, 204);"/><path class="link" d="M-50,320C-50,360 -50,360 -50,400" style="opacity: 1; fill: none; stroke: rgb(204, 204, 204);"/><path class="link" d="M-150,400C-150,440 -150,440 -150,480" style="opacity: 1; fill: none; stroke: rgb(204, 204, 204);"/><path class="link" d="M-150,480C-150,520 -150,520 -150,560" style="opacity: 1; fill: none; stroke: rgb(204, 204, 204);"/><path class="link" d="M-50,400C-50,440 -50,440 -50,480" style="opacity: 1; fill: none; stroke: rgb(204, 204, 204);"/><path class="link" d="M-50,480C-50,520 -50,520 -50,560" style="opacity: 1; fill: none; stroke: rgb(204, 204, 204);"/><path class="link" d="M975,160C975,200 1650,200 1650,240" style="opacity: 1; fill: none; stroke: rgb(204, 204, 204);"/><path class="link" d="M975,160C975,200 1700,200 1700,240" style="opacity: 1; fill: none; stroke: rgb(204, 204, 204);"/><path class="link" d="M300,240C300,280 150,280 150,320" style="opacity: 1; fill: none; stroke: rgb(204, 204, 204);"/><path class="link" d="M300,240C300,280 200,280 200,320" style="opacity: 1; fill: none; stroke: rgb(204, 204, 204);"/><path class="link" d="M300,240C300,280 250,280 250,320" style="opacity: 1; fill: none; stroke: rgb(204, 204, 204);"/><path class="link" d="M300,240C300,280 300,280 300,320" style="opacity: 1; fill: none; stroke: rgb(204, 204, 204);"/><path class="link" d="M300,240C300,280 400,280 400,320" style="opacity: 1; fill: none; stroke: rgb(204, 204, 204);"/><path class="link" d="M300,240C300,280 450,280 450,320" style="opacity: 1; fill: none; stroke: rgb(204, 204, 204);"/><path class="link" d="M200,320C200,360 200,360 200,400" style="opacity: 1; fill: none; stroke: rgb(204, 204, 204);"/><path class="link" d="M400,320C400,360 400,360 400,400" style="opacity: 1; fill: none; stroke: rgb(204, 204, 204);"/><path class="link" d="M1550,240C1550,280 550,280 550,320" style="opacity: 1; fill: none; stroke: rgb(204, 204, 204);"/><path class="link" d="M1550,240C1550,280 600,280 600,320" style="opacity: 1; fill: none; stroke: rgb(204, 204, 204);"/><path class="link" d="M1550,240C1550,280 675,280 675,320" style="opacity: 1; fill: none; stroke: rgb(204, 204, 204);"/><path class="link" d="M1550,240C1550,280 750,280 750,320" style="opacity: 1; fill: none; stroke: rgb(204, 204, 204);"/><path class="link" d="M1550,240C1550,280 1050,280 1050,320" style="opacity: 1; fill: none; stroke: rgb(204, 204, 204);"/><path class="link" d="M1550,240C1550,280 1150,280 1150,320" style="opacity: 1; fill: none; stroke: rgb(204, 204, 204);"/><path class="link" d="M1550,240C1550,280 1250,280 1250,320" style="opacity: 1; fill: none; stroke: rgb(204, 204, 204);"/><path class="link" d="M1550,240C1550,280 1350,280 1350,320" style="opacity: 1; fill: none; stroke: rgb(204, 204, 204);"/><path class="link" d="M1550,240C1550,280 1450,280 1450,320" style="opacity: 1; fill: none; stroke: rgb(204, 204, 204);"/><path class="link" d="M1550,240C1550,280 1550,280 1550,320" style="opacity: 1; fill: none; stroke: rgb(204, 204, 204);"/><path class="link" d="M1550,240C1550,280 1650,280 1650,320" style="opacity: 1; fill: none; stroke: rgb(204, 204, 204);"/><path class="link" d="M1550,240C1550,280 1750,280 1750,320" style="opacity: 1; fill: none; stroke: rgb(204, 204, 204);"/><path class="link" d="M1550,240C1550,280 1850,280 1850,320" style="opacity: 1; fill: none; stroke: rgb(204, 204, 204);"/><path class="link" d="M1550,240C1550,280 1950,280 1950,320" style="opacity: 1; fill: none; stroke: rgb(204, 204, 204);"/><path class="link" d="M1550,240C1550,280 2050,280 2050,320" style="opacity: 1; fill: none; stroke: rgb(204, 204, 204);"/><path class="link" d="M1550,240C1550,280 2150,280 2150,320" style="opacity: 1; fill: none; stroke: rgb(204, 204, 204);"/><path class="link" d="M1550,240C1550,280 2250,280 2250,320" style="opacity: 1; fill: none; stroke: rgb(204, 204, 204);"/><path class="link" d="M1550,240C1550,280 2350,280 2350,320" style="opacity: 1; fill: none; stroke: rgb(204, 204, 204);"/><path class="link" d="M1550,240C1550,280 2500,280 2500,320" style="opacity: 1; fill: none; stroke: rgb(204, 204, 204);"/><path class="link" d="M600,320C600,360 600,360 600,400" style="opacity: 1; fill: none; stroke: rgb(204, 204, 204);"/><path class="link" d="M750,320C750,360 700,360 700,400" style="opacity: 1; fill: none; stroke: rgb(204, 204, 204);"/><path class="link" d="M750,320C750,360 750,360 750,400" style="opacity: 1; fill: none; stroke: rgb(204, 204, 204);"/><path class="link" d="M750,320C750,360 800,360 800,400" style="opacity: 1; fill: none; stroke: rgb(204, 204, 204);"/><path class="link" d="M700,400C700,440 700,440 700,480" style="opacity: 1; fill: none; stroke: rgb(204, 204, 204);"/><path class="link" d="M950,320C950,360 900,360 900,400" style="opacity: 1; fill: none; stroke: rgb(204, 204, 204);"/><path class="link" d="M950,320C950,360 1000,360 1000,400" style="opacity: 1; fill: none; stroke: rgb(204, 204, 204);"/><path class="link" d="M900,400C900,440 900,440 900,480" style="opacity: 1; fill: none; stroke: rgb(204, 204, 204);"/><path class="link" d="M1150,320C1150,360 1100,360 1100,400" style="opacity: 1; fill: none; stroke: rgb(204, 204, 204);"/><path class="link" d="M1150,320C1150,360 1150,360 1150,400" style="opacity: 1; fill: none; stroke: rgb(204, 204, 204);"/><path class="link" d="M1150,320C1150,360 1200,360 1200,400" style="opacity: 1; fill: none; stroke: rgb(204, 204, 204);"/><path class="link" d="M1100,400C1100,440 1100,440 1100,480" style="opacity: 1; fill: none; stroke: rgb(204, 204, 204);"/><path class="link" d="M1350,320C1350,360 1300,360 1300,400" style="opacity: 1; fill: none; stroke: rgb(204, 204, 204);"/><path class="link" d="M1350,320C1350,360 1350,360 1350,400" style="opacity: 1; fill: none; stroke: rgb(204, 204, 204);"/><path class="link" d="M1350,320C1350,360 1400,360 1400,400" style="opacity: 1; fill: none; stroke: rgb(204, 204, 204);"/><path class="link" d="M1300,400C1300,440 1300,440 1300,480" style="opacity: 1; fill: none; stroke: rgb(204, 204, 204);"/><path class="link" d="M1550,320C1550,360 1500,360 1500,400" style="opacity: 1; fill: none; stroke: rgb(204, 204, 204);"/><path class="link" d="M1550,320C1550,360 1550,360 1550,400" style="opacity: 1; fill: none; stroke: rgb(204, 204, 204);"/><path class="link" d="M1550,320C1550,360 1600,360 1600,400" style="opacity: 1; fill: none; stroke: rgb(204, 204, 204);"/><path class="link" d="M1500,400C1500,440 1500,440 1500,480" style="opacity: 1; fill: none; stroke: rgb(204, 204, 204);"/><path class="link" d="M1750,320C1750,360 1700,360 1700,400" style="opacity: 1; fill: none; stroke: rgb(204, 204, 204);"/><path class="link" d="M1750,320C1750,360 1750,360 1750,400" style="opacity: 1; fill: none; stroke: rgb(204, 204, 204);"/><path class="link" d="M1750,320C1750,360 1800,360 1800,400" style="opacity: 1; fill: none; stroke: rgb(204, 204, 204);"/><path class="link" d="M1700,400C1700,440 1700,440 1700,480" style="opacity: 1; fill: none; stroke: rgb(204, 204, 204);"/><path class="link" d="M1950,320C1950,360 1900,360 1900,400" style="opacity: 1; fill: none; stroke: rgb(204, 204, 204);"/><path class="link" d="M1950,320C1950,360 1950,360 1950,400" style="opacity: 1; fill: none; stroke: rgb(204, 204, 204);"/><path class="link" d="M1950,320C1950,360 2000,360 2000,400" style="opacity: 1; fill: none; stroke: rgb(204, 204, 204);"/><path class="link" d="M1900,400C1900,440 1900,440 1900,480" style="opacity: 1; fill: none; stroke: rgb(204, 204, 204);"/><path class="link" d="M2150,320C2150,360 2100,360 2100,400" style="opacity: 1; fill: none; stroke: rgb(204, 204, 204);"/><path class="link" d="M2150,320C2150,360 2150,360 2150,400" style="opacity: 1; fill: none; stroke: rgb(204, 204, 204);"/><path class="link" d="M2150,320C2150,360 2200,360 2200,400" style="opacity: 1; fill: none; stroke: rgb(204, 204, 204);"/><path class="link" d="M2100,400C2100,440 2100,440 2100,480" style="opacity: 1; fill: none; stroke: rgb(204, 204, 204);"/><path class="link" d="M2350,320C2350,360 2300,360 2300,400" style="opacity: 1; fill: none; stroke: rgb(204, 204, 204);"/><path class="link" d="M2350,320C2350,360 2350,360 2350,400" style="opacity: 1; fill: none; stroke: rgb(204, 204, 204);"/><path class="link" d="M2350,320C2350,360 2400,360 2400,400" style="opacity: 1; fill: none; stroke: rgb(204, 204, 204);"/><path class="link" d="M2300,400C2300,440 2300,440 2300,480" style="opacity: 1; fill: none; stroke: rgb(204, 204, 204);"/><path class="link" d="M2500,320C2500,360 2500,360 2500,400" style="opacity: 1; fill: none; stroke: rgb(204, 204, 204);"/><g class="node element" style="opacity: 1; font-size: 11px; font-weight: bold;" transform="translate(0,0)"><circle r="10" style="stroke-width: 1.5px; fill: steelblue; stroke: rgb(53, 94, 149);"/><text text-anchor="middle" dy="-15">html</text></g><g class="node element" style="opacity: 1; font-size: 11px; font-weight: bold;" transform="translate(-475,80)"><circle r="10" style="stroke-width: 1.5px; fill: steelblue; stroke: rgb(53, 94, 149);"/><text text-anchor="middle" dy="-15">head</text></g><g class="node text indent" style="opacity: 1; font-size: 11px; font-weight: bold;" transform="translate(-675,160)"><circle r="10" style="stroke-width: 1.5px; fill: rgb(255, 204, 0); stroke: orange;"/><text text-anchor="middle" dy="-15">#text</text></g><g class="node element" style="opacity: 1; font-size: 11px; font-weight: bold;" transform="translate(-625,160)"><circle r="10" style="stroke-width: 1.5px; fill: steelblue; stroke: rgb(53, 94, 149);"/><text text-anchor="middle" dy="-15">meta</text></g><g class="node text indent" style="opacity: 1; font-size: 11px; font-weight: bold;" transform="translate(-575,160)"><circle r="10" style="stroke-width: 1.5px; fill: rgb(255, 204, 0); stroke: orange;"/><text text-anchor="middle" dy="-15">#text</text></g><g class="node element" style="opacity: 1; font-size: 11px; font-weight: bold;" transform="translate(-525,160)"><circle r="10" style="stroke-width: 1.5px; fill: steelblue; stroke: rgb(53, 94, 149);"/><text text-anchor="middle" dy="-15">title</text></g><g class="node text" style="opacity: 1; font-size: 11px; font-weight: bold;" transform="translate(-525,240)"><circle r="10" style="stroke-width: 1.5px; fill: rgb(80, 180, 86); stroke: rgb(13, 149, 44);"/><text text-anchor="middle" dy="-15">#text</text></g><g class="node text indent" style="opacity: 1; font-size: 11px; font-weight: bold;" transform="translate(-275,160)"><circle r="10" style="stroke-width: 1.5px; fill: rgb(255, 204, 0); stroke: orange;"/><text text-anchor="middle" dy="-15">#text</text></g><g class="node text indent" style="opacity: 1; font-size: 11px; font-weight: bold;" transform="translate(0,80)"><circle r="10" style="stroke-width: 1.5px; fill: rgb(255, 204, 0); stroke: orange;"/><text text-anchor="middle" dy="-15">#text</text></g><g class="node element" style="opacity: 1; font-size: 11px; font-weight: bold;" transform="translate(475,80)"><circle r="10" style="stroke-width: 1.5px; fill: steelblue; stroke: rgb(53, 94, 149);"/><text text-anchor="middle" dy="-15">body</text></g><g class="node text indent" style="opacity: 1; font-size: 11px; font-weight: bold;" transform="translate(-175,160)"><circle r="10" style="stroke-width: 1.5px; fill: rgb(255, 204, 0); stroke: orange;"/><text text-anchor="middle" dy="-15">#text</text></g><g class="node element" style="opacity: 1; font-size: 11px; font-weight: bold;" transform="translate(-125,160)"><circle r="10" style="stroke-width: 1.5px; fill: steelblue; stroke: rgb(53, 94, 149);"/><text text-anchor="middle" dy="-15">header</text></g><g class="node text" style="opacity: 1; font-size: 11px; font-weight: bold;" transform="translate(0,240)"><circle r="10" style="stroke-width: 1.5px; fill: rgb(80, 180, 86); stroke: rgb(13, 149, 44);"/><text text-anchor="middle" dy="-15">#text</text></g><g class="node text indent" style="opacity: 1; font-size: 11px; font-weight: bold;" transform="translate(425,160)"><circle r="10" style="stroke-width: 1.5px; fill: rgb(255, 204, 0); stroke: orange;"/><text text-anchor="middle" dy="-15">#text</text></g><g class="node element" style="opacity: 1; font-size: 11px; font-weight: bold;" transform="translate(975,160)"><circle r="10" style="stroke-width: 1.5px; fill: steelblue; stroke: rgb(53, 94, 149);"/><text text-anchor="middle" dy="-15">main</text></g><g class="node text indent" style="opacity: 1; font-size: 11px; font-weight: bold;" transform="translate(250,240)"><circle r="10" style="stroke-width: 1.5px; fill: rgb(255, 204, 0); stroke: orange;"/><text text-anchor="middle" dy="-15">#text</text></g><g class="node text indent" style="opacity: 1; font-size: 11px; font-weight: bold;" transform="translate(925,240)"><circle r="10" style="stroke-width: 1.5px; fill: rgb(255, 204, 0); stroke: orange;"/><text text-anchor="middle" dy="-15">#text</text></g><g class="node element" style="opacity: 1; font-size: 11px; font-weight: bold;" transform="translate(1550,240)"><circle r="10" style="stroke-width: 1.5px; fill: steelblue; stroke: rgb(53, 94, 149);"/><text text-anchor="middle" dy="-15">section#datosFactura</text></g><g class="node text" style="opacity: 1; font-size: 11px; font-weight: bold;" transform="translate(2425,320)"><circle r="10" style="stroke-width: 1.5px; fill: rgb(80, 180, 86); stroke: rgb(13, 149, 44);"/><text text-anchor="middle" dy="-15">#text</text></g><g class="node text indent" style="opacity: 1; font-size: 11px; font-weight: bold;" transform="translate(1600,240)"><circle r="10" style="stroke-width: 1.5px; fill: rgb(255, 204, 0); stroke: orange;"/><text text-anchor="middle" dy="-15">#text</text></g><g class="node text indent" style="opacity: 1; font-size: 11px; font-weight: bold;" transform="translate(1025,160)"><circle r="10" style="stroke-width: 1.5px; fill: rgb(255, 204, 0); stroke: orange;"/><text text-anchor="middle" dy="-15">#text</text></g><g class="node text indent" style="opacity: 1; font-size: 11px; font-weight: bold;" transform="translate(-475,160)"><circle r="10" style="stroke-width: 1.5px; fill: rgb(255, 204, 0); stroke: orange;"/><text text-anchor="middle" dy="-15">#text</text></g><g class="node element" style="opacity: 1; font-size: 11px; font-weight: bold;" transform="translate(-425,160)"><circle r="10" style="stroke-width: 1.5px; fill: steelblue; stroke: rgb(53, 94, 149);"/><text text-anchor="middle" dy="-15">link</text></g><g class="node text indent" style="opacity: 1; font-size: 11px; font-weight: bold;" transform="translate(-375,160)"><circle r="10" style="stroke-width: 1.5px; fill: rgb(255, 204, 0); stroke: orange;"/><text text-anchor="middle" dy="-15">#text</text></g><g class="node element" style="opacity: 1; font-size: 11px; font-weight: bold;" transform="translate(-325,160)"><circle r="10" style="stroke-width: 1.5px; fill: steelblue; stroke: rgb(53, 94, 149);"/><text text-anchor="middle" dy="-15">link</text></g><g class="node text indent" style="opacity: 1; font-size: 11px; font-weight: bold;" transform="translate(-250,240)"><circle r="10" style="stroke-width: 1.5px; fill: rgb(255, 204, 0); stroke: orange;"/><text text-anchor="middle" dy="-15">#text</text></g><g class="node element" style="opacity: 1; font-size: 11px; font-weight: bold;" transform="translate(-200,240)"><circle r="10" style="stroke-width: 1.5px; fill: steelblue; stroke: rgb(53, 94, 149);"/><text text-anchor="middle" dy="-15">h1</text></g><g class="node text" style="opacity: 1; font-size: 11px; font-weight: bold;" transform="translate(-200,320)"><circle r="10" style="stroke-width: 1.5px; fill: rgb(80, 180, 86); stroke: rgb(13, 149, 44);"/><text text-anchor="middle" dy="-15">#text</text></g><g class="node text indent" style="opacity: 1; font-size: 11px; font-weight: bold;" transform="translate(-125,240)"><circle r="10" style="stroke-width: 1.5px; fill: rgb(255, 204, 0); stroke: orange;"/><text text-anchor="middle" dy="-15">#text</text></g><g class="node element" style="opacity: 1; font-size: 11px; font-weight: bold;" transform="translate(-50,240)"><circle r="10" style="stroke-width: 1.5px; fill: steelblue; stroke: rgb(53, 94, 149);"/><text text-anchor="middle" dy="-15">nav</text></g><g class="node text indent" style="opacity: 1; font-size: 11px; font-weight: bold;" transform="translate(-100,320)"><circle r="10" style="stroke-width: 1.5px; fill: rgb(255, 204, 0); stroke: orange;"/><text text-anchor="middle" dy="-15">#text</text></g><g class="node element" style="opacity: 1; font-size: 11px; font-weight: bold;" transform="translate(-50,320)"><circle r="10" style="stroke-width: 1.5px; fill: steelblue; stroke: rgb(53, 94, 149);"/><text text-anchor="middle" dy="-15">ul</text></g><g class="node text indent" style="opacity: 1; font-size: 11px; font-weight: bold;" transform="translate(0,400)"><circle r="10" style="stroke-width: 1.5px; fill: rgb(255, 204, 0); stroke: orange;"/><text text-anchor="middle" dy="-15">#text</text></g><g class="node element" style="opacity: 1; font-size: 11px; font-weight: bold;" transform="translate(50,400)"><circle r="10" style="stroke-width: 1.5px; fill: steelblue; stroke: rgb(53, 94, 149);"/><text text-anchor="middle" dy="-15">li</text></g><g class="node element" style="opacity: 1; font-size: 11px; font-weight: bold;" transform="translate(50,480)"><circle r="10" style="stroke-width: 1.5px; fill: steelblue; stroke: rgb(53, 94, 149);"/><text text-anchor="middle" dy="-15">a</text></g><g class="node text" style="opacity: 1; font-size: 11px; font-weight: bold;" transform="translate(50,560)"><circle r="10" style="stroke-width: 1.5px; fill: rgb(80, 180, 86); stroke: rgb(13, 149, 44);"/><text text-anchor="middle" dy="-15">#text</text></g><g class="node text indent" style="opacity: 1; font-size: 11px; font-weight: bold;" transform="translate(100,400)"><circle r="10" style="stroke-width: 1.5px; fill: rgb(255, 204, 0); stroke: orange;"/><text text-anchor="middle" dy="-15">#text</text></g><g class="node text indent" style="opacity: 1; font-size: 11px; font-weight: bold;" transform="translate(0,320)"><circle r="10" style="stroke-width: 1.5px; fill: rgb(255, 204, 0); stroke: orange;"/><text text-anchor="middle" dy="-15">#text</text></g><g class="node element" style="opacity: 1; font-size: 11px; font-weight: bold;" transform="translate(300,240)"><circle r="10" style="stroke-width: 1.5px; fill: steelblue; stroke: rgb(53, 94, 149);"/><text text-anchor="middle" dy="-15">form#formFactura</text></g><g class="node text" style="opacity: 1; font-size: 11px; font-weight: bold;" transform="translate(350,320)"><circle r="10" style="stroke-width: 1.5px; fill: rgb(80, 180, 86); stroke: rgb(13, 149, 44);"/><text text-anchor="middle" dy="-15">#text</text></g><g class="node text indent" style="opacity: 1; font-size: 11px; font-weight: bold;" transform="translate(850,320)"><circle r="10" style="stroke-width: 1.5px; fill: rgb(255, 204, 0); stroke: orange;"/><text text-anchor="middle" dy="-15">#text</text></g><g class="node element" style="opacity: 1; font-size: 11px; font-weight: bold;" transform="translate(950,320)"><circle r="10" style="stroke-width: 1.5px; fill: steelblue; stroke: rgb(53, 94, 149);"/><text text-anchor="middle" dy="-15">p</text></g><g class="node text indent" style="opacity: 1; font-size: 11px; font-weight: bold;" transform="translate(950,400)"><circle r="10" style="stroke-width: 1.5px; fill: rgb(255, 204, 0); stroke: orange;"/><text text-anchor="middle" dy="-15">#text</text></g><g class="node text indent" style="opacity: 1; font-size: 11px; font-weight: bold;" transform="translate(2550,320)"><circle r="10" style="stroke-width: 1.5px; fill: rgb(255, 204, 0); stroke: orange;"/><text text-anchor="middle" dy="-15">#text</text></g><g class="node element" style="opacity: 1; font-size: 11px; font-weight: bold;" transform="translate(1075,160)"><circle r="10" style="stroke-width: 1.5px; fill: steelblue; stroke: rgb(53, 94, 149);"/><text text-anchor="middle" dy="-15">script</text></g><g class="node text indent" style="opacity: 1; font-size: 11px; font-weight: bold;" transform="translate(1125,160)"><circle r="10" style="stroke-width: 1.5px; fill: rgb(255, 204, 0); stroke: orange;"/><text text-anchor="middle" dy="-15">#text</text></g><g class="node text indent" style="opacity: 1; font-size: 11px; font-weight: bold;" transform="translate(-200,400)"><circle r="10" style="stroke-width: 1.5px; fill: rgb(255, 204, 0); stroke: orange;"/><text text-anchor="middle" dy="-15">#text</text></g><g class="node element" style="opacity: 1; font-size: 11px; font-weight: bold;" transform="translate(-150,400)"><circle r="10" style="stroke-width: 1.5px; fill: steelblue; stroke: rgb(53, 94, 149);"/><text text-anchor="middle" dy="-15">li</text></g><g class="node element" style="opacity: 1; font-size: 11px; font-weight: bold;" transform="translate(-150,480)"><circle r="10" style="stroke-width: 1.5px; fill: steelblue; stroke: rgb(53, 94, 149);"/><text text-anchor="middle" dy="-15">a</text></g><g class="node text" style="opacity: 1; font-size: 11px; font-weight: bold;" transform="translate(-150,560)"><circle r="10" style="stroke-width: 1.5px; fill: rgb(80, 180, 86); stroke: rgb(13, 149, 44);"/><text text-anchor="middle" dy="-15">#text</text></g><g class="node text indent" style="opacity: 1; font-size: 11px; font-weight: bold;" transform="translate(-100,400)"><circle r="10" style="stroke-width: 1.5px; fill: rgb(255, 204, 0); stroke: orange;"/><text text-anchor="middle" dy="-15">#text</text></g><g class="node element" style="opacity: 1; font-size: 11px; font-weight: bold;" transform="translate(-50,400)"><circle r="10" style="stroke-width: 1.5px; fill: steelblue; stroke: rgb(53, 94, 149);"/><text text-anchor="middle" dy="-15">li</text></g><g class="node element" style="opacity: 1; font-size: 11px; font-weight: bold;" transform="translate(-50,480)"><circle r="10" style="stroke-width: 1.5px; fill: steelblue; stroke: rgb(53, 94, 149);"/><text text-anchor="middle" dy="-15">a</text></g><g class="node text" style="opacity: 1; font-size: 11px; font-weight: bold;" transform="translate(-50,560)"><circle r="10" style="stroke-width: 1.5px; fill: rgb(80, 180, 86); stroke: rgb(13, 149, 44);"/><text text-anchor="middle" dy="-15">#text</text></g><g class="node text indent" style="opacity: 1; font-size: 11px; font-weight: bold;" transform="translate(150,320)"><circle r="10" style="stroke-width: 1.5px; fill: rgb(255, 204, 0); stroke: orange;"/><text text-anchor="middle" dy="-15">#text</text></g><g class="node element" style="opacity: 1; font-size: 11px; font-weight: bold;" transform="translate(200,320)"><circle r="10" style="stroke-width: 1.5px; fill: steelblue; stroke: rgb(53, 94, 149);"/><text text-anchor="middle" dy="-15">label</text></g><g class="node text" style="opacity: 1; font-size: 11px; font-weight: bold;" transform="translate(200,400)"><circle r="10" style="stroke-width: 1.5px; fill: rgb(80, 180, 86); stroke: rgb(13, 149, 44);"/><text text-anchor="middle" dy="-15">#text</text></g><g class="node text indent" style="opacity: 1; font-size: 11px; font-weight: bold;" transform="translate(250,320)"><circle r="10" style="stroke-width: 1.5px; fill: rgb(255, 204, 0); stroke: orange;"/><text text-anchor="middle" dy="-15">#text</text></g><g class="node element" style="opacity: 1; font-size: 11px; font-weight: bold;" transform="translate(300,320)"><circle r="10" style="stroke-width: 1.5px; fill: steelblue; stroke: rgb(53, 94, 149);"/><text text-anchor="middle" dy="-15">input#docBuscar</text></g><g class="node element" style="opacity: 1; font-size: 11px; font-weight: bold;" transform="translate(400,320)"><circle r="10" style="stroke-width: 1.5px; fill: steelblue; stroke: rgb(53, 94, 149);"/><text text-anchor="middle" dy="-15">button</text></g><g class="node text" style="opacity: 1; font-size: 11px; font-weight: bold;" transform="translate(400,400)"><circle r="10" style="stroke-width: 1.5px; fill: rgb(80, 180, 86); stroke: rgb(13, 149, 44);"/><text text-anchor="middle" dy="-15">#text</text></g><g class="node text indent" style="opacity: 1; font-size: 11px; font-weight: bold;" transform="translate(450,320)"><circle r="10" style="stroke-width: 1.5px; fill: rgb(255, 204, 0); stroke: orange;"/><text text-anchor="middle" dy="-15">#text</text></g><g class="node text indent" style="opacity: 1; font-size: 11px; font-weight: bold;" transform="translate(550,320)"><circle r="10" style="stroke-width: 1.5px; fill: rgb(255, 204, 0); stroke: orange;"/><text text-anchor="middle" dy="-15">#text</text></g><g class="node element" style="opacity: 1; font-size: 11px; font-weight: bold;" transform="translate(600,320)"><circle r="10" style="stroke-width: 1.5px; fill: steelblue; stroke: rgb(53, 94, 149);"/><text text-anchor="middle" dy="-15">h2</text></g><g class="node text" style="opacity: 1; font-size: 11px; font-weight: bold;" transform="translate(600,400)"><circle r="10" style="stroke-width: 1.5px; fill: rgb(80, 180, 86); stroke: rgb(13, 149, 44);"/><text text-anchor="middle" dy="-15">#text</text></g><g class="node text indent" style="opacity: 1; font-size: 11px; font-weight: bold;" transform="translate(675,320)"><circle r="10" style="stroke-width: 1.5px; fill: rgb(255, 204, 0); stroke: orange;"/><text text-anchor="middle" dy="-15">#text</text></g><g class="node element" style="opacity: 1; font-size: 11px; font-weight: bold;" transform="translate(750,320)"><circle r="10" style="stroke-width: 1.5px; fill: steelblue; stroke: rgb(53, 94, 149);"/><text text-anchor="middle" dy="-15">p</text></g><g class="node element" style="opacity: 1; font-size: 11px; font-weight: bold;" transform="translate(700,400)"><circle r="10" style="stroke-width: 1.5px; fill: steelblue; stroke: rgb(53, 94, 149);"/><text text-anchor="middle" dy="-15">strong</text></g><g class="node text" style="opacity: 1; font-size: 11px; font-weight: bold;" transform="translate(700,480)"><circle r="10" style="stroke-width: 1.5px; fill: rgb(80, 180, 86); stroke: rgb(13, 149, 44);"/><text text-anchor="middle" dy="-15">#text</text></g><g class="node text indent" style="opacity: 1; font-size: 11px; font-weight: bold;" transform="translate(750,400)"><circle r="10" style="stroke-width: 1.5px; fill: rgb(255, 204, 0); stroke: orange;"/><text text-anchor="middle" dy="-15">#text</text></g><g class="node element" style="opacity: 1; font-size: 11px; font-weight: bold;" transform="translate(800,400)"><circle r="10" style="stroke-width: 1.5px; fill: steelblue; stroke: rgb(53, 94, 149);"/><text text-anchor="middle" dy="-15">span#nombreFactura</text></g><g class="node element" style="opacity: 1; font-size: 11px; font-weight: bold;" transform="translate(900,400)"><circle r="10" style="stroke-width: 1.5px; fill: steelblue; stroke: rgb(53, 94, 149);"/><text text-anchor="middle" dy="-15">strong</text></g><g class="node text" style="opacity: 1; font-size: 11px; font-weight: bold;" transform="translate(900,480)"><circle r="10" style="stroke-width: 1.5px; fill: rgb(80, 180, 86); stroke: rgb(13, 149, 44);"/><text text-anchor="middle" dy="-15">#text</text></g><g class="node element" style="opacity: 1; font-size: 11px; font-weight: bold;" transform="translate(1000,400)"><circle r="10" style="stroke-width: 1.5px; fill: steelblue; stroke: rgb(53, 94, 149);"/><text text-anchor="middle" dy="-15">span#correoFactura</text></g><g class="node text indent" style="opacity: 1; font-size: 11px; font-weight: bold;" transform="translate(1050,320)"><circle r="10" style="stroke-width: 1.5px; fill: rgb(255, 204, 0); stroke: orange;"/><text text-anchor="middle" dy="-15">#text</text></g><g class="node element" style="opacity: 1; font-size: 11px; font-weight: bold;" transform="translate(1150,320)"><circle r="10" style="stroke-width: 1.5px; fill: steelblue; stroke: rgb(53, 94, 149);"/><text text-anchor="middle" dy="-15">p</text></g><g class="node element" style="opacity: 1; font-size: 11px; font-weight: bold;" transform="translate(1100,400)"><circle r="10" style="stroke-width: 1.5px; fill: steelblue; stroke: rgb(53, 94, 149);"/><text text-anchor="middle" dy="-15">strong</text></g><g class="node text" style="opacity: 1; font-size: 11px; font-weight: bold;" transform="translate(1100,480)"><circle r="10" style="stroke-width: 1.5px; fill: rgb(80, 180, 86); stroke: rgb(13, 149, 44);"/><text text-anchor="middle" dy="-15">#text</text></g><g class="node text indent" style="opacity: 1; font-size: 11px; font-weight: bold;" transform="translate(1150,400)"><circle r="10" style="stroke-width: 1.5px; fill: rgb(255, 204, 0); stroke: orange;"/><text text-anchor="middle" dy="-15">#text</text></g><g class="node element" style="opacity: 1; font-size: 11px; font-weight: bold;" transform="translate(1200,400)"><circle r="10" style="stroke-width: 1.5px; fill: steelblue; stroke: rgb(53, 94, 149);"/><text text-anchor="middle" dy="-15">span#fechasFactura</text></g><g class="node text indent" style="opacity: 1; font-size: 11px; font-weight: bold;" transform="translate(1250,320)"><circle r="10" style="stroke-width: 1.5px; fill: rgb(255, 204, 0); stroke: orange;"/><text text-anchor="middle" dy="-15">#text</text></g><g class="node element" style="opacity: 1; font-size: 11px; font-weight: bold;" transform="translate(1350,320)"><circle r="10" style="stroke-width: 1.5px; fill: steelblue; stroke: rgb(53, 94, 149);"/><text text-anchor="middle" dy="-15">p</text></g><g class="node element" style="opacity: 1; font-size: 11px; font-weight: bold;" transform="translate(1300,400)"><circle r="10" style="stroke-width: 1.5px; fill: steelblue; stroke: rgb(53, 94, 149);"/><text text-anchor="middle" dy="-15">strong</text></g><g class="node text" style="opacity: 1; font-size: 11px; font-weight: bold;" transform="translate(1300,480)"><circle r="10" style="stroke-width: 1.5px; fill: rgb(80, 180, 86); stroke: rgb(13, 149, 44);"/><text text-anchor="middle" dy="-15">#text</text></g><g class="node text indent" style="opacity: 1; font-size: 11px; font-weight: bold;" transform="translate(1350,400)"><circle r="10" style="stroke-width: 1.5px; fill: rgb(255, 204, 0); stroke: orange;"/><text text-anchor="middle" dy="-15">#text</text></g><g class="node element" style="opacity: 1; font-size: 11px; font-weight: bold;" transform="translate(1400,400)"><circle r="10" style="stroke-width: 1.5px; fill: steelblue; stroke: rgb(53, 94, 149);"/><text text-anchor="middle" dy="-15">span#tipoFactura</text></g><g class="node text indent" style="opacity: 1; font-size: 11px; font-weight: bold;" transform="translate(1450,320)"><circle r="10" style="stroke-width: 1.5px; fill: rgb(255, 204, 0); stroke: orange;"/><text text-anchor="middle" dy="-15">#text</text></g><g class="node element" style="opacity: 1; font-size: 11px; font-weight: bold;" transform="translate(1550,320)"><circle r="10" style="stroke-width: 1.5px; fill: steelblue; stroke: rgb(53, 94, 149);"/><text text-anchor="middle" dy="-15">p</text></g><g class="node element" style="opacity: 1; font-size: 11px; font-weight: bold;" transform="translate(1500,400)"><circle r="10" style="stroke-width: 1.5px; fill: steelblue; stroke: rgb(53, 94, 149);"/><text text-anchor="middle" dy="-15">strong</text></g><g class="node text" style="opacity: 1; font-size: 11px; font-weight: bold;" transform="translate(1500,480)"><circle r="10" style="stroke-width: 1.5px; fill: rgb(80, 180, 86); stroke: rgb(13, 149, 44);"/><text text-anchor="middle" dy="-15">#text</text></g><g class="node text" style="opacity: 1; font-size: 11px; font-weight: bold;" transform="translate(1550,400)"><circle r="10" style="stroke-width: 1.5px; fill: rgb(80, 180, 86); stroke: rgb(13, 149, 44);"/><text text-anchor="middle" dy="-15">#text</text></g><g class="node element" style="opacity: 1; font-size: 11px; font-weight: bold;" transform="translate(1600,400)"><circle r="10" style="stroke-width: 1.5px; fill: steelblue; stroke: rgb(53, 94, 149);"/><text text-anchor="middle" dy="-15">span#precioNoche</text></g><g class="node text indent" style="opacity: 1; font-size: 11px; font-weight: bold;" transform="translate(1650,320)"><circle r="10" style="stroke-width: 1.5px; fill: rgb(255, 204, 0); stroke: orange;"/><text text-anchor="middle" dy="-15">#text</text></g><g class="node element" style="opacity: 1; font-size: 11px; font-weight: bold;" transform="translate(1750,320)"><circle r="10" style="stroke-width: 1.5px; fill: steelblue; stroke: rgb(53, 94, 149);"/><text text-anchor="middle" dy="-15">p</text></g><g class="node element" style="opacity: 1; font-size: 11px; font-weight: bold;" transform="translate(1700,400)"><circle r="10" style="stroke-width: 1.5px; fill: steelblue; stroke: rgb(53, 94, 149);"/><text text-anchor="middle" dy="-15">strong</text></g><g class="node text" style="opacity: 1; font-size: 11px; font-weight: bold;" transform="translate(1700,480)"><circle r="10" style="stroke-width: 1.5px; fill: rgb(80, 180, 86); stroke: rgb(13, 149, 44);"/><text text-anchor="middle" dy="-15">#text</text></g><g class="node text indent" style="opacity: 1; font-size: 11px; font-weight: bold;" transform="translate(1750,400)"><circle r="10" style="stroke-width: 1.5px; fill: rgb(255, 204, 0); stroke: orange;"/><text text-anchor="middle" dy="-15">#text</text></g><g class="node element" style="opacity: 1; font-size: 11px; font-weight: bold;" transform="translate(1800,400)"><circle r="10" style="stroke-width: 1.5px; fill: steelblue; stroke: rgb(53, 94, 149);"/><text text-anchor="middle" dy="-15">span#diasEstadia</text></g><g class="node text indent" style="opacity: 1; font-size: 11px; font-weight: bold;" transform="translate(1850,320)"><circle r="10" style="stroke-width: 1.5px; fill: rgb(255, 204, 0); stroke: orange;"/><text text-anchor="middle" dy="-15">#text</text></g><g class="node element" style="opacity: 1; font-size: 11px; font-weight: bold;" transform="translate(1950,320)"><circle r="10" style="stroke-width: 1.5px; fill: steelblue; stroke: rgb(53, 94, 149);"/><text text-anchor="middle" dy="-15">p</text></g><g class="node element" style="opacity: 1; font-size: 11px; font-weight: bold;" transform="translate(1900,400)"><circle r="10" style="stroke-width: 1.5px; fill: steelblue; stroke: rgb(53, 94, 149);"/><text text-anchor="middle" dy="-15">strong</text></g><g class="node text" style="opacity: 1; font-size: 11px; font-weight: bold;" transform="translate(1900,480)"><circle r="10" style="stroke-width: 1.5px; fill: rgb(80, 180, 86); stroke: rgb(13, 149, 44);"/><text text-anchor="middle" dy="-15">#text</text></g><g class="node text" style="opacity: 1; font-size: 11px; font-weight: bold;" transform="translate(1950,400)"><circle r="10" style="stroke-width: 1.5px; fill: rgb(80, 180, 86); stroke: rgb(13, 149, 44);"/><text text-anchor="middle" dy="-15">#text</text></g><g class="node element" style="opacity: 1; font-size: 11px; font-weight: bold;" transform="translate(2000,400)"><circle r="10" style="stroke-width: 1.5px; fill: steelblue; stroke: rgb(53, 94, 149);"/><text text-anchor="middle" dy="-15">span#subtotal</text></g><g class="node text indent" style="opacity: 1; font-size: 11px; font-weight: bold;" transform="translate(2050,320)"><circle r="10" style="stroke-width: 1.5px; fill: rgb(255, 204, 0); stroke: orange;"/><text text-anchor="middle" dy="-15">#text</text></g><g class="node element" style="opacity: 1; font-size: 11px; font-weight: bold;" transform="translate(2150,320)"><circle r="10" style="stroke-width: 1.5px; fill: steelblue; stroke: rgb(53, 94, 149);"/><text text-anchor="middle" dy="-15">p</text></g><g class="node element" style="opacity: 1; font-size: 11px; font-weight: bold;" transform="translate(2100,400)"><circle r="10" style="stroke-width: 1.5px; fill: steelblue; stroke: rgb(53, 94, 149);"/><text text-anchor="middle" dy="-15">strong</text></g><g class="node text" style="opacity: 1; font-size: 11px; font-weight: bold;" transform="translate(2100,480)"><circle r="10" style="stroke-width: 1.5px; fill: rgb(80, 180, 86); stroke: rgb(13, 149, 44);"/><text text-anchor="middle" dy="-15">#text</text></g><g class="node text" style="opacity: 1; font-size: 11px; font-weight: bold;" transform="translate(2150,400)"><circle r="10" style="stroke-width: 1.5px; fill: rgb(80, 180, 86); stroke: rgb(13, 149, 44);"/><text text-anchor="middle" dy="-15">#text</text></g><g class="node element" style="opacity: 1; font-size: 11px; font-weight: bold;" transform="translate(2200,400)"><circle r="10" style="stroke-width: 1.5px; fill: steelblue; stroke: rgb(53, 94, 149);"/><text text-anchor="middle" dy="-15">span#impuestos</text></g><g class="node text indent" style="opacity: 1; font-size: 11px; font-weight: bold;" transform="translate(2250,320)"><circle r="10" style="stroke-width: 1.5px; fill: rgb(255, 204, 0); stroke: orange;"/><text text-anchor="middle" dy="-15">#text</text></g><g class="node element" style="opacity: 1; font-size: 11px; font-weight: bold;" transform="translate(2350,320)"><circle r="10" style="stroke-width: 1.5px; fill: steelblue; stroke: rgb(53, 94, 149);"/><text text-anchor="middle" dy="-15">p</text></g><g class="node element" style="opacity: 1; font-size: 11px; font-weight: bold;" transform="translate(2300,400)"><circle r="10" style="stroke-width: 1.5px; fill: steelblue; stroke: rgb(53, 94, 149);"/><text text-anchor="middle" dy="-15">strong</text></g><g class="node text" style="opacity: 1; font-size: 11px; font-weight: bold;" transform="translate(2300,480)"><circle r="10" style="stroke-width: 1.5px; fill: rgb(80, 180, 86); stroke: rgb(13, 149, 44);"/><text text-anchor="middle" dy="-15">#text</text></g><g class="node text" style="opacity: 1; font-size: 11px; font-weight: bold;" transform="translate(2350,400)"><circle r="10" style="stroke-width: 1.5px; fill: rgb(80, 180, 86); stroke: rgb(13, 149, 44);"/><text text-anchor="middle" dy="-15">#text</text></g><g class="node element" style="opacity: 1; font-size: 11px; font-weight: bold;" transform="translate(2400,400)"><circle r="10" style="stroke-width: 1.5px; fill: steelblue; stroke: rgb(53, 94, 149);"/><text text-anchor="middle" dy="-15">span#total</text></g><g class="node element" style="opacity: 1; font-size: 11px; font-weight: bold;" transform="translate(2500,320)"><circle r="10" style="stroke-width: 1.5px; fill: steelblue; stroke: rgb(53, 94, 149);"/><text text-anchor="middle" dy="-15">button</text></g><g class="node text" style="opacity: 1; font-size: 11px; font-weight: bold;" transform="translate(2500,400)"><circle r="10" style="stroke-width: 1.5px; fill: rgb(80, 180, 86); stroke: rgb(13, 149, 44);"/><text text-anchor="middle" dy="-15">#text</text></g><g class="node element" style="opacity: 1; font-size: 11px; font-weight: bold;" transform="translate(1650,240)"><circle r="10" style="stroke-width: 1.5px; fill: steelblue; stroke: rgb(53, 94, 149);"/><text text-anchor="middle" dy="-15">p#mensajeFactura</text></g><g class="node text indent" style="opacity: 1; font-size: 11px; font-weight: bold;" transform="translate(1700,240)"><circle r="10" style="stroke-width: 1.5px; fill: rgb(255, 204, 0); stroke: orange;"/><text text-anchor="middle" dy="-15">#text</text></g></g></svg>