<svg xmlns="http://www.w3.org/2000/svg" width="1820" height="605"><g transform="translate(651.25,30)"><path class="link" d="M0,0C0,40 -381.25,40 -381.25,80" style="opacity: 1; fill: none; stroke: rgb(204, 204, 204);"/><path class="link" d="M0,0C0,40 0,40 0,80" style="opacity: 1; fill: none; stroke: rgb(204, 204, 204);"/><path class="link" d="M0,0C0,40 381.25,40 381.25,80" style="opacity: 1; fill: none; stroke: rgb(204, 204, 204);"/><path class="link" d="M-381.25,80C-381.25,120 -531.25,120 -531.25,160" style="opacity: 1; fill: none; stroke: rgb(204, 204, 204);"/><path class="link" d="M-381.25,80C-381.25,120 -481.25,120 -481.25,160" style="opacity: 1; fill: none; stroke: rgb(204, 204, 204);"/><path class="link" d="M-381.25,80C-381.25,120 -431.25,120 -431.25,160" style="opacity: 1; fill: none; stroke: rgb(204, 204, 204);"/><path class="link" d="M-381.25,80C-381.25,120 -381.25,120 -381.25,160" style="opacity: 1; fill: none; stroke: rgb(204, 204, 204);"/><path class="link" d="M-381.25,80C-381.25,120 -131.25,120 -131.25,160" style="opacity: 1; fill: none; stroke: rgb(204, 204, 204);"/><path class="link" d="M-381.25,160C-381.25,200 -381.25,200 -381.25,240" style="opacity: 1; fill: none; stroke: rgb(204, 204, 204);"/><path class="link" d="M381.25,80C381.25,120 -31.25,120 -31.25,160" style="opacity: 1; fill: none; stroke: rgb(204, 204, 204);"/><path class="link" d="M381.25,80C381.25,120 18.75,120 18.75,160" style="opacity: 1; fill: none; stroke: rgb(204, 204, 204);"/><path class="link" d="M381.25,80C381.25,120 381.25,120 381.25,160" style="opacity: 1; fill: none; stroke: rgb(204, 204, 204);"/><path class="link" d="M381.25,80C381.25,120 743.75,120 743.75,160" style="opacity: 1; fill: none; stroke: rgb(204, 204, 204);"/><path class="link" d="M381.25,80C381.25,120 793.75,120 793.75,160" style="opacity: 1; fill: none; stroke: rgb(204, 204, 204);"/><path class="link" d="M18.75,160C18.75,200 143.75,200 143.75,240" style="opacity: 1; fill: none; stroke: rgb(204, 204, 204);"/><path class="link" d="M743.75,160C743.75,200 518.75,200 518.75,240" style="opacity: 1; fill: none; stroke: rgb(204, 204, 204);"/><path class="link" d="M743.75,160C743.75,200 1043.75,200 1043.75,240" style="opacity: 1; fill: none; stroke: rgb(204, 204, 204);"/><path class="link" d="M743.75,160C743.75,200 1093.75,200 1093.75,240" style="opacity: 1; fill: none; stroke: rgb(204, 204, 204);"/><path class="link" d="M-381.25,80C-381.25,120 -331.25,120 -331.25,160" style="opacity: 1; fill: none; stroke: rgb(204, 204, 204);"/><path class="link" d="M-381.25,80C-381.25,120 -281.25,120 -281.25,160" style="opacity: 1; fill: none; stroke: rgb(204, 204, 204);"/><path class="link" d="M-381.25,80C-381.25,120 -231.25,120 -231.25,160" style="opacity: 1; fill: none; stroke: rgb(204, 204, 204);"/><path class="link" d="M-381.25,80C-381.25,120 -181.25,120 -181.25,160" style="opacity: 1; fill: none; stroke: rgb(204, 204, 204);"/><path class="link" d="M18.75,160C18.75,200 -106.25,200 -106.25,240" style="opacity: 1; fill: none; stroke: rgb(204, 204, 204);"/><path class="link" d="M18.75,160C18.75,200 -56.25,200 -56.25,240" style="opacity: 1; fill: none; stroke: rgb(204, 204, 204);"/><path class="link" d="M18.75,160C18.75,200 18.75,200 18.75,240" style="opacity: 1; fill: none; stroke: rgb(204, 204, 204);"/><path class="link" d="M18.75,160C18.75,200 93.75,200 93.75,240" style="opacity: 1; fill: none; stroke: rgb(204, 204, 204);"/><path class="link" d="M-56.25,240C-56.25,280 -56.25,280 -56.25,320" style="opacity: 1; fill: none; stroke: rgb(204, 204, 204);"/><path class="link" d="M93.75,240C93.75,280 43.75,280 43.75,320" style="opacity: 1; fill: none; stroke: rgb(204, 204, 204);"/><path class="link" d="M93.75,240C93.75,280 93.75,280 93.75,320" style="opacity: 1; fill: none; stroke: rgb(204, 204, 204);"/><path class="link" d="M93.75,240C93.75,280 143.75,280 143.75,320" style="opacity: 1; fill: none; stroke: rgb(204, 204, 204);"/><path class="link" d="M93.75,320C93.75,360 193.75,360 193.75,400" style="opacity: 1; fill: none; stroke: rgb(204, 204, 204);"/><path class="link" d="M93.75,320C93.75,360 243.75,360 243.75,400" style="opacity: 1; fill: none; stroke: rgb(204, 204, 204);"/><path class="link" d="M93.75,320C93.75,360 293.75,360 293.75,400" style="opacity: 1; fill: none; stroke: rgb(204, 204, 204);"/><path class="link" d="M243.75,400C243.75,440 243.75,440 243.75,480" style="opacity: 1; fill: none; stroke: rgb(204, 204, 204);"/><path class="link" d="M243.75,480C243.75,520 243.75,520 243.75,560" style="opacity: 1; fill: none; stroke: rgb(204, 204, 204);"/><path class="link" d="M743.75,160C743.75,200 443.75,200 443.75,240" style="opacity: 1; fill: none; stroke: rgb(204, 204, 204);"/><path class="link" d="M443.75,240C443.75,280 443.75,280 443.75,320" style="opacity: 1; fill: none; stroke: rgb(204, 204, 204);"/><path class="link" d="M1043.75,240C1043.75,280 1143.75,280 1143.75,320" style="opacity: 1; fill: none; stroke: rgb(204, 204, 204);"/><path class="link" d="M93.75,320C93.75,360 -6.25,360 -6.25,400" style="opacity: 1; fill: none; stroke: rgb(204, 204, 204);"/><path class="link" d="M93.75,320C93.75,360 43.75,360 43.75,400" style="opacity: 1; fill: none; stroke: rgb(204, 204, 204);"/><path class="link" d="M93.75,320C93.75,360 93.75,360 93.75,400" style="opacity: 1; fill: none; stroke: rgb(204, 204, 204);"/><path class="link" d="M93.75,320C93.75,360 143.75,360 143.75,400" style="opacity: 1; fill: none; stroke: rgb(204, 204, 204);"/><path class="link" d="M43.75,400C43.75,440 43.75,440 43.75,480" style="opacity: 1; fill: none; stroke: rgb(204, 204, 204);"/><path class="link" d="M43.75,480C43.75,520 43.75,520 43.75,560" style="opacity: 1; fill: none; stroke: rgb(204, 204, 204);"/><path class="link" d="M143.75,400C143.75,440 143.75,440 143.75,480" style="opacity: 1; fill: none; stroke: rgb(204, 204, 204);"/><path class="link" d="M143.75,480C143.75,520 143.75,520 143.75,560" style="opacity: 1; fill: none; stroke: rgb(204, 204, 204);"/><path class="link" d="M443.75,240C443.75,280 343.75,280 343.75,320" style="opacity: 1; fill: none; stroke: rgb(204, 204, 204);"/><path class="link" d="M443.75,240C443.75,280 393.75,280 393.75,320" style="opacity: 1; fill: none; stroke: rgb(204, 204, 204);"/><path class="link" d="M443.75,240C443.75,280 493.75,280 493.75,320" style="opacity: 1; fill: none; stroke: rgb(204, 204, 204);"/><path class="link" d="M443.75,240C443.75,280 543.75,280 543.75,320" style="opacity: 1; fill: none; stroke: rgb(204, 204, 204);"/><path class="link" d="M393.75,320C393.75,360 393.75,360 393.75,400" style="opacity: 1; fill: none; stroke: rgb(204, 204, 204);"/><path class="link" d="M1043.75,240C1043.75,280 943.75,280 943.75,320" style="opacity: 1; fill: none; stroke: rgb(204, 204, 204);"/><path class="link" d="M1043.75,240C1043.75,280 993.75,280 993.75,320" style="opacity: 1; fill: none; stroke: rgb(204, 204, 204);"/><path class="link" d="M1043.75,240C1043.75,280 1043.75,280 1043.75,320" style="opacity: 1; fill: none; stroke: rgb(204, 204, 204);"/><path class="link" d="M1043.75,240C1043.75,280 1093.75,280 1093.75,320" style="opacity: 1; fill: none; stroke: rgb(204, 204, 204);"/><path class="link" d="M993.75,320C993.75,360 993.75,360 993.75,400" style="opacity: 1; fill: none; stroke: rgb(204, 204, 204);"/><path class="link" d="M1093.75,320C1093.75,360 1093.75,360 1093.75,400" style="opacity: 1; fill: none; stroke: rgb(204, 204, 204);"/><path class="link" d="M743.75,160C743.75,200 393.75,200 393.75,240" style="opacity: 1; fill: none; stroke: rgb(204, 204, 204);"/><path class="link" d="M743.75,160C743.75,200 593.75,200 593.75,240" style="opacity: 1; fill: none; stroke: rgb(204, 204, 204);"/><path class="link" d="M743.75,160C743.75,200 893.75,200 893.75,240" style="opacity: 1; fill: none; stroke: rgb(204, 204, 204);"/><path class="link" d="M493.75,320C493.75,360 493.75,360 493.75,400" style="opacity: 1; fill: none; stroke: rgb(204, 204, 204);"/><path class="link" d="M-381.25,80C-381.25,120 -631.25,120 -631.25,160" style="opacity: 1; fill: none; stroke: rgb(204, 204, 204);"/><path class="link" d="M-381.25,80C-381.25,120 -581.25,120 -581.25,160" style="opacity: 1; fill: none; stroke: rgb(204, 204, 204);"/><path class="link" d="M93.75,320C93.75,360 -106.25,360 -106.25,400" style="opacity: 1; fill: none; stroke: rgb(204, 204, 204);"/><path class="link" d="M93.75,320C93.75,360 -56.25,360 -56.25,400" style="opacity: 1; fill: none; stroke: rgb(204, 204, 204);"/><path class="link" d="M-56.25,400C-56.25,440 -56.25,440 -56.25,480" style="opacity: 1; fill: none; stroke: rgb(204, 204, 204);"/><path class="link" d="M-56.25,480C-56.25,520 -56.25,520 -56.25,560" style="opacity: 1; fill: none; stroke: rgb(204, 204, 204);"/><path class="link" d="M743.75,160C743.75,200 668.75,200 668.75,240" style="opacity: 1; fill: none; stroke: rgb(204, 204, 204);"/><path class="link" d="M743.75,160C743.75,200 743.75,200 743.75,240" style="opacity: 1; fill: none; stroke: rgb(204, 204, 204);"/><path class="link" d="M743.75,240C743.75,280 643.75,280 643.75,320" style="opacity: 1; fill: none; stroke: rgb(204, 204, 204);"/><path class="link" d="M743.75,240C743.75,280 693.75,280 693.75,320" style="opacity: 1; fill: none; stroke: rgb(204, 204, 204);"/><path class="link" d="M743.75,240C743.75,280 743.75,280 743.75,320" style="opacity: 1; fill: none; stroke: rgb(204, 204, 204);"/><path class="link" d="M743.75,240C743.75,280 793.75,280 793.75,320" style="opacity: 1; fill: none; stroke: rgb(204, 204, 204);"/><path class="link" d="M743.75,240C743.75,280 843.75,280 843.75,320" style="opacity: 1; fill: none; stroke: rgb(204, 204, 204);"/><g class="node element" style="opacity: 1; font-size: 11px; font-weight: bold;" transform="translate(0,0)"><circle r="10" style="stroke-width: 1.5px; fill: steelblue; stroke: rgb(53, 94, 149);"/><text text-anchor="middle" dy="-15">html</text></g><g class="node element" style="opacity: 1; font-size: 11px; font-weight: bold;" transform="translate(-381.25,80)"><circle r="10" style="stroke-width: 1.5px; fill: steelblue; stroke: rgb(53, 94, 149);"/><text text-anchor="middle" dy="-15">head</text></g><g class="node text indent" style="opacity: 1; font-size: 11px; font-weight: bold;" transform="translate(-531.25,160)"><circle r="10" style="stroke-width: 1.5px; fill: rgb(255, 204, 0); stroke: orange;"/><text text-anchor="middle" dy="-15">#text</text></g><g class="node element" style="opacity: 1; font-size: 11px; font-weight: bold;" transform="translate(-481.25,160)"><circle r="10" style="stroke-width: 1.5px; fill: steelblue; stroke: rgb(53, 94, 149);"/><text text-anchor="middle" dy="-15">meta</text></g><g class="node text indent" style="opacity: 1; font-size: 11px; font-weight: bold;" transform="translate(-431.25,160)"><circle r="10" style="stroke-width: 1.5px; fill: rgb(255, 204, 0); stroke: orange;"/><text text-anchor="middle" dy="-15">#text</text></g><g class="node element" style="opacity: 1; font-size: 11px; font-weight: bold;" transform="translate(-381.25,160)"><circle r="10" style="stroke-width: 1.5px; fill: steelblue; stroke: rgb(53, 94, 149);"/><text text-anchor="middle" dy="-15">title</text></g><g class="node text" style="opacity: 1; font-size: 11px; font-weight: bold;" transform="translate(-381.25,240)"><circle r="10" style="stroke-width: 1.5px; fill: rgb(80, 180, 86); stroke: rgb(13, 149, 44);"/><text text-anchor="middle" dy="-15">#text</text></g><g class="node text indent" style="opacity: 1; font-size: 11px; font-weight: bold;" transform="translate(-131.25,160)"><circle r="10" style="stroke-width: 1.5px; fill: rgb(255, 204, 0); stroke: orange;"/><text text-anchor="middle" dy="-15">#text</text></g><g class="node text indent" style="opacity: 1; font-size: 11px; font-weight: bold;" transform="translate(0,80)"><circle r="10" style="stroke-width: 1.5px; fill: rgb(255, 204, 0); stroke: orange;"/><text text-anchor="middle" dy="-15">#text</text></g><g class="node element" style="opacity: 1; font-size: 11px; font-weight: bold;" transform="translate(381.25,80)"><circle r="10" style="stroke-width: 1.5px; fill: steelblue; stroke: rgb(53, 94, 149);"/><text text-anchor="middle" dy="-15">body</text></g><g class="node text indent" style="opacity: 1; font-size: 11px; font-weight: bold;" transform="translate(-31.25,160)"><circle r="10" style="stroke-width: 1.5px; fill: rgb(255, 204, 0); stroke: orange;"/><text text-anchor="middle" dy="-15">#text</text></g><g class="node element" style="opacity: 1; font-size: 11px; font-weight: bold;" transform="translate(18.75,160)"><circle r="10" style="stroke-width: 1.5px; fill: steelblue; stroke: rgb(53, 94, 149);"/><text text-anchor="middle" dy="-15">header.encabezado</text></g><g class="node text" style="opacity: 1; font-size: 11px; font-weight: bold;" transform="translate(143.75,240)"><circle r="10" style="stroke-width: 1.5px; fill: rgb(80, 180, 86); stroke: rgb(13, 149, 44);"/><text text-anchor="middle" dy="-15">#text</text></g><g class="node text indent" style="opacity: 1; font-size: 11px; font-weight: bold;" transform="translate(381.25,160)"><circle r="10" style="stroke-width: 1.5px; fill: rgb(255, 204, 0); stroke: orange;"/><text text-anchor="middle" dy="-15">#text</text></g><g class="node element" style="opacity: 1; font-size: 11px; font-weight: bold;" transform="translate(743.75,160)"><circle r="10" style="stroke-width: 1.5px; fill: steelblue; stroke: rgb(53, 94, 149);"/><text text-anchor="middle" dy="-15">main.contenido-inicio</text></g><g class="node text indent" style="opacity: 1; font-size: 11px; font-weight: bold;" transform="translate(518.75,240)"><circle r="10" style="stroke-width: 1.5px; fill: rgb(255, 204, 0); stroke: orange;"/><text text-anchor="middle" dy="-15">#text</text></g><g class="node element" style="opacity: 1; font-size: 11px; font-weight: bold;" transform="translate(1043.75,240)"><circle r="10" style="stroke-width: 1.5px; fill: steelblue; stroke: rgb(53, 94, 149);"/><text text-anchor="middle" dy="-15">div.cuadro-botones</text></g><g class="node text indent" style="opacity: 1; font-size: 11px; font-weight: bold;" transform="translate(1093.75,240)"><circle r="10" style="stroke-width: 1.5px; fill: rgb(255, 204, 0); stroke: orange;"/><text text-anchor="middle" dy="-15">#text</text></g><g class="node text indent" style="opacity: 1; font-size: 11px; font-weight: bold;" transform="translate(793.75,160)"><circle r="10" style="stroke-width: 1.5px; fill: rgb(255, 204, 0); stroke: orange;"/><text text-anchor="middle" dy="-15">#text</text></g><g class="node text indent" style="opacity: 1; font-size: 11px; font-weight: bold;" transform="translate(-331.25,160)"><circle r="10" style="stroke-width: 1.5px; fill: rgb(255, 204, 0); stroke: orange;"/><text text-anchor="middle" dy="-15">#text</text></g><g class="node element" style="opacity: 1; font-size: 11px; font-weight: bold;" transform="translate(-281.25,160)"><circle r="10" style="stroke-width: 1.5px; fill: steelblue; stroke: rgb(53, 94, 149);"/><text text-anchor="middle" dy="-15">link</text></g><g class="node text indent" style="opacity: 1; font-size: 11px; font-weight: bold;" transform="translate(-231.25,160)"><circle r="10" style="stroke-width: 1.5px; fill: rgb(255, 204, 0); stroke: orange;"/><text text-anchor="middle" dy="-15">#text</text></g><g class="node element" style="opacity: 1; font-size: 11px; font-weight: bold;" transform="translate(-181.25,160)"><circle r="10" style="stroke-width: 1.5px; fill: steelblue; stroke: rgb(53, 94, 149);"/><text text-anchor="middle" dy="-15">link</text></g><g class="node text indent" style="opacity: 1; font-size: 11px; font-weight: bold;" transform="translate(-106.25,240)"><circle r="10" style="stroke-width: 1.5px; fill: rgb(255, 204, 0); stroke: orange;"/><text text-anchor="middle" dy="-15">#text</text></g><g class="node element" style="opacity: 1; font-size: 11px; font-weight: bold;" transform="translate(-56.25,240)"><circle r="10" style="stroke-width: 1.5px; fill: steelblue; stroke: rgb(53, 94, 149);"/><text text-anchor="middle" dy="-15">h1</text></g><g class="node text" style="opacity: 1; font-size: 11px; font-weight: bold;" transform="translate(-56.25,320)"><circle r="10" style="stroke-width: 1.5px; fill: rgb(80, 180, 86); stroke: rgb(13, 149, 44);"/><text text-anchor="middle" dy="-15">#text</text></g><g class="node text indent" style="opacity: 1; font-size: 11px; font-weight: bold;" transform="translate(18.75,240)"><circle r="10" style="stroke-width: 1.5px; fill: rgb(255, 204, 0); stroke: orange;"/><text text-anchor="middle" dy="-15">#text</text></g><g class="node element" style="opacity: 1; font-size: 11px; font-weight: bold;" transform="translate(93.75,240)"><circle r="10" style="stroke-width: 1.5px; fill: steelblue; stroke: rgb(53, 94, 149);"/><text text-anchor="middle" dy="-15">nav</text></g><g class="node text indent" style="opacity: 1; font-size: 11px; font-weight: bold;" transform="translate(43.75,320)"><circle r="10" style="stroke-width: 1.5px; fill: rgb(255, 204, 0); stroke: orange;"/><text text-anchor="middle" dy="-15">#text</text></g><g class="node element" style="opacity: 1; font-size: 11px; font-weight: bold;" transform="translate(93.75,320)"><circle r="10" style="stroke-width: 1.5px; fill: steelblue; stroke: rgb(53, 94, 149);"/><text text-anchor="middle" dy="-15">ul</text></g><g class="node text indent" style="opacity: 1; font-size: 11px; font-weight: bold;" transform="translate(193.75,400)"><circle r="10" style="stroke-width: 1.5px; fill: rgb(255, 204, 0); stroke: orange;"/><text text-anchor="middle" dy="-15">#text</text></g><g class="node element" style="opacity: 1; font-size: 11px; font-weight: bold;" transform="translate(243.75,400)"><circle r="10" style="stroke-width: 1.5px; fill: steelblue; stroke: rgb(53, 94, 149);"/><text text-anchor="middle" dy="-15">li</text></g><g class="node element" style="opacity: 1; font-size: 11px; font-weight: bold;" transform="translate(243.75,480)"><circle r="10" style="stroke-width: 1.5px; fill: steelblue; stroke: rgb(53, 94, 149);"/><text text-anchor="middle" dy="-15">a</text></g><g class="node text" style="opacity: 1; font-size: 11px; font-weight: bold;" transform="translate(243.75,560)"><circle r="10" style="stroke-width: 1.5px; fill: rgb(80, 180, 86); stroke: rgb(13, 149, 44);"/><text text-anchor="middle" dy="-15">#text</text></g><g class="node text indent" style="opacity: 1; font-size: 11px; font-weight: bold;" transform="translate(293.75,400)"><circle r="10" style="stroke-width: 1.5px; fill: rgb(255, 204, 0); stroke: orange;"/><text text-anchor="middle" dy="-15">#text</text></g><g class="node text indent" style="opacity: 1; font-size: 11px; font-weight: bold;" transform="translate(143.75,320)"><circle r="10" style="stroke-width: 1.5px; fill: rgb(255, 204, 0); stroke: orange;"/><text text-anchor="middle" dy="-15">#text</text></g><g class="node element" style="opacity: 1; font-size: 11px; font-weight: bold;" transform="translate(443.75,240)"><circle r="10" style="stroke-width: 1.5px; fill: steelblue; stroke: rgb(53, 94, 149);"/><text text-anchor="middle" dy="-15">section.bienvenida</text></g><g class="node text" style="opacity: 1; font-size: 11px; font-weight: bold;" transform="translate(443.75,320)"><circle r="10" style="stroke-width: 1.5px; fill: rgb(80, 180, 86); stroke: rgb(13, 149, 44);"/><text text-anchor="middle" dy="-15">#text</text></g><g class="node text indent" style="opacity: 1; font-size: 11px; font-weight: bold;" transform="translate(1143.75,320)"><circle r="10" style="stroke-width: 1.5px; fill: rgb(255, 204, 0); stroke: orange;"/><text text-anchor="middle" dy="-15">#text</text></g><g class="node text indent" style="opacity: 1; font-size: 11px; font-weight: bold;" transform="translate(-6.25,400)"><circle r="10" style="stroke-width: 1.5px; fill: rgb(255, 204, 0); stroke: orange;"/><text text-anchor="middle" dy="-15">#text</text></g><g class="node element" style="opacity: 1; font-size: 11px; font-weight: bold;" transform="translate(43.75,400)"><circle r="10" style="stroke-width: 1.5px; fill: steelblue; stroke: rgb(53, 94, 149);"/><text text-anchor="middle" dy="-15">li</text></g><g class="node element" style="opacity: 1; font-size: 11px; font-weight: bold;" transform="translate(43.75,480)"><circle r="10" style="stroke-width: 1.5px; fill: steelblue; stroke: rgb(53, 94, 149);"/><text text-anchor="middle" dy="-15">a</text></g><g class="node text" style="opacity: 1; font-size: 11px; font-weight: bold;" transform="translate(43.75,560)"><circle r="10" style="stroke-width: 1.5px; fill: rgb(80, 180, 86); stroke: rgb(13, 149, 44);"/><text text-anchor="middle" dy="-15">#text</text></g><g class="node text indent" style="opacity: 1; font-size: 11px; font-weight: bold;" transform="translate(93.75,400)"><circle r="10" style="stroke-width: 1.5px; fill: rgb(255, 204, 0); stroke: orange;"/><text text-anchor="middle" dy="-15">#text</text></g><g class="node element" style="opacity: 1; font-size: 11px; font-weight: bold;" transform="translate(143.75,400)"><circle r="10" style="stroke-width: 1.5px; fill: steelblue; stroke: rgb(53, 94, 149);"/><text text-anchor="middle" dy="-15">li</text></g><g class="node element" style="opacity: 1; font-size: 11px; font-weight: bold;" transform="translate(143.75,480)"><circle r="10" style="stroke-width: 1.5px; fill: steelblue; stroke: rgb(53, 94, 149);"/><text text-anchor="middle" dy="-15">a</text></g><g class="node text" style="opacity: 1; font-size: 11px; font-weight: bold;" transform="translate(143.75,560)"><circle r="10" style="stroke-width: 1.5px; fill: rgb(80, 180, 86); stroke: rgb(13, 149, 44);"/><text text-anchor="middle" dy="-15">#text</text></g><g class="node text indent" style="opacity: 1; font-size: 11px; font-weight: bold;" transform="translate(343.75,320)"><circle r="10" style="stroke-width: 1.5px; fill: rgb(255, 204, 0); stroke: orange;"/><text text-anchor="middle" dy="-15">#text</text></g><g class="node element" style="opacity: 1; font-size: 11px; font-weight: bold;" transform="translate(393.75,320)"><circle r="10" style="stroke-width: 1.5px; fill: steelblue; stroke: rgb(53, 94, 149);"/><text text-anchor="middle" dy="-15">h2</text></g><g class="node text" style="opacity: 1; font-size: 11px; font-weight: bold;" transform="translate(393.75,400)"><circle r="10" style="stroke-width: 1.5px; fill: rgb(80, 180, 86); stroke: rgb(13, 149, 44);"/><text text-anchor="middle" dy="-15">#text</text></g><g class="node element" style="opacity: 1; font-size: 11px; font-weight: bold;" transform="translate(493.75,320)"><circle r="10" style="stroke-width: 1.5px; fill: steelblue; stroke: rgb(53, 94, 149);"/><text text-anchor="middle" dy="-15">p</text></g><g class="node text indent" style="opacity: 1; font-size: 11px; font-weight: bold;" transform="translate(543.75,320)"><circle r="10" style="stroke-width: 1.5px; fill: rgb(255, 204, 0); stroke: orange;"/><text text-anchor="middle" dy="-15">#text</text></g><g class="node text indent" style="opacity: 1; font-size: 11px; font-weight: bold;" transform="translate(943.75,320)"><circle r="10" style="stroke-width: 1.5px; fill: rgb(255, 204, 0); stroke: orange;"/><text text-anchor="middle" dy="-15">#text</text></g><g class="node element" style="opacity: 1; font-size: 11px; font-weight: bold;" transform="translate(993.75,320)"><circle r="10" style="stroke-width: 1.5px; fill: steelblue; stroke: rgb(53, 94, 149);"/><text text-anchor="middle" dy="-15">a.btn.btn-primario</text></g><g class="node text indent" style="opacity: 1; font-size: 11px; font-weight: bold;" transform="translate(993.75,400)"><circle r="10" style="stroke-width: 1.5px; fill: rgb(255, 204, 0); stroke: orange;"/><text text-anchor="middle" dy="-15">#text</text></g><g class="node text indent" style="opacity: 1; font-size: 11px; font-weight: bold;" transform="translate(1043.75,320)"><circle r="10" style="stroke-width: 1.5px; fill: rgb(255, 204, 0); stroke: orange;"/><text text-anchor="middle" dy="-15">#text</text></g><g class="node element" style="opacity: 1; font-size: 11px; font-weight: bold;" transform="translate(1093.75,320)"><circle r="10" style="stroke-width: 1.5px; fill: steelblue; stroke: rgb(53, 94, 149);"/><text text-anchor="middle" dy="-15">a.btn.btn-secundario</text></g><g class="node text" style="opacity: 1; font-size: 11px; font-weight: bold;" transform="translate(1093.75,400)"><circle r="10" style="stroke-width: 1.5px; fill: rgb(80, 180, 86); stroke: rgb(13, 149, 44);"/><text text-anchor="middle" dy="-15">#text</text></g><g class="node text indent" style="opacity: 1; font-size: 11px; font-weight: bold;" transform="translate(393.75,240)"><circle r="10" style="stroke-width: 1.5px; fill: rgb(255, 204, 0); stroke: orange;"/><text text-anchor="middle" dy="-15">#text</text></g><g class="node text indent" style="opacity: 1; font-size: 11px; font-weight: bold;" transform="translate(493.75,400)"><circle r="10" style="stroke-width: 1.5px; fill: rgb(255, 204, 0); stroke: orange;"/><text text-anchor="middle" dy="-15">#text</text></g><g class="node comment" style="opacity: 1; font-size: 11px; font-weight: bold;" transform="translate(593.75,240)"><circle r="10" style="stroke-width: 1.5px; fill: rgb(154, 80, 150); stroke: purple;"/><text text-anchor="middle" dy="-15">&lt;!-- --&gt;</text></g><g class="node text indent" style="opacity: 1; font-size: 11px; font-weight: bold;" transform="translate(893.75,240)"><circle r="10" style="stroke-width: 1.5px; fill: rgb(255, 204, 0); stroke: orange;"/><text text-anchor="middle" dy="-15">#text</text></g><g class="node text indent" style="opacity: 1; font-size: 11px; font-weight: bold;" transform="translate(-631.25,160)"><circle r="10" style="stroke-width: 1.5px; fill: rgb(255, 204, 0); stroke: orange;"/><text text-anchor="middle" dy="-15">#text</text></g><g class="node element" style="opacity: 1; font-size: 11px; font-weight: bold;" transform="translate(-581.25,160)"><circle r="10" style="stroke-width: 1.5px; fill: steelblue; stroke: rgb(53, 94, 149);"/><text text-anchor="middle" dy="-15">meta</text></g><g class="node text indent" style="opacity: 1; font-size: 11px; font-weight: bold;" transform="translate(-106.25,400)"><circle r="10" style="stroke-width: 1.5px; fill: rgb(255, 204, 0); stroke: orange;"/><text text-anchor="middle" dy="-15">#text</text></g><g class="node element" style="opacity: 1; font-size: 11px; font-weight: bold;" transform="translate(-56.25,400)"><circle r="10" style="stroke-width: 1.5px; fill: steelblue; stroke: rgb(53, 94, 149);"/><text text-anchor="middle" dy="-15">li</text></g><g class="node element" style="opacity: 1; font-size: 11px; font-weight: bold;" transform="translate(-56.25,480)"><circle r="10" style="stroke-width: 1.5px; fill: steelblue; stroke: rgb(53, 94, 149);"/><text text-anchor="middle" dy="-15">a</text></g><g class="node text" style="opacity: 1; font-size: 11px; font-weight: bold;" transform="translate(-56.25,560)"><circle r="10" style="stroke-width: 1.5px; fill: rgb(80, 180, 86); stroke: rgb(13, 149, 44);"/><text text-anchor="middle" dy="-15">#text</text></g><g class="node text indent" style="opacity: 1; font-size: 11px; font-weight: bold;" transform="translate(668.75,240)"><circle r="10" style="stroke-width: 1.5px; fill: rgb(255, 204, 0); stroke: orange;"/><text text-anchor="middle" dy="-15">#text</text></g><g class="node element" style="opacity: 1; font-size: 11px; font-weight: bold;" transform="translate(743.75,240)"><circle r="10" style="stroke-width: 1.5px; fill: steelblue; stroke: rgb(53, 94, 149);"/><text text-anchor="middle" dy="-15">section.galeria-inicio</text></g><g class="node text indent" style="opacity: 1; font-size: 11px; font-weight: bold;" transform="translate(643.75,320)"><circle r="10" style="stroke-width: 1.5px; fill: rgb(255, 204, 0); stroke: orange;"/><text text-anchor="middle" dy="-15">#text</text></g><g class="node element" style="opacity: 1; font-size: 11px; font-weight: bold;" transform="translate(693.75,320)"><circle r="10" style="stroke-width: 1.5px; fill: steelblue; stroke: rgb(53, 94, 149);"/><text text-anchor="middle" dy="-15">img.imagen-inicio</text></g><g class="node text indent" style="opacity: 1; font-size: 11px; font-weight: bold;" transform="translate(743.75,320)"><circle r="10" style="stroke-width: 1.5px; fill: rgb(255, 204, 0); stroke: orange;"/><text text-anchor="middle" dy="-15">#text</text></g><g class="node element" style="opacity: 1; font-size: 11px; font-weight: bold;" transform="translate(793.75,320)"><circle r="10" style="stroke-width: 1.5px; fill: steelblue; stroke: rgb(53, 94, 149);"/><text text-anchor="middle" dy="-15">img.imagen-inicio</text></g><g class="node text indent" style="opacity: 1; font-size: 11px; font-weight: bold;" transform="translate(843.75,320)"><circle r="10" style="stroke-width: 1.5px; fill: rgb(255, 204, 0); stroke: orange;"/><text text-anchor="middle" dy="-15">#text</text></g></g></svg>