<svg xmlns="http://www.w3.org/2000/svg" width="1420" height="605"><g transform="translate(563.75,30)"><path class="link" d="M0,0C0,40 -343.75,40 -343.75,80" style="opacity: 1; fill: none; stroke: rgb(204, 204, 204);"/><path class="link" d="M0,0C0,40 0,40 0,80" style="opacity: 1; fill: none; stroke: rgb(204, 204, 204);"/><path class="link" d="M0,0C0,40 343.75,40 343.75,80" style="opacity: 1; fill: none; stroke: rgb(204, 204, 204);"/><path class="link" d="M-343.75,80C-343.75,120 -493.75,120 -493.75,160" style="opacity: 1; fill: none; stroke: rgb(204, 204, 204);"/><path class="link" d="M-343.75,80C-343.75,120 -443.75,120 -443.75,160" style="opacity: 1; fill: none; stroke: rgb(204, 204, 204);"/><path class="link" d="M-343.75,80C-343.75,120 -393.75,120 -393.75,160" style="opacity: 1; fill: none; stroke: rgb(204, 204, 204);"/><path class="link" d="M-343.75,80C-343.75,120 -143.75,120 -143.75,160" style="opacity: 1; fill: none; stroke: rgb(204, 204, 204);"/><path class="link" d="M-393.75,160C-393.75,200 -393.75,200 -393.75,240" style="opacity: 1; fill: none; stroke: rgb(204, 204, 204);"/><path class="link" d="M343.75,80C343.75,120 -43.75,120 -43.75,160" style="opacity: 1; fill: none; stroke: rgb(204, 204, 204);"/><path class="link" d="M343.75,80C343.75,120 6.25,120 6.25,160" style="opacity: 1; fill: none; stroke: rgb(204, 204, 204);"/><path class="link" d="M343.75,80C343.75,120 293.75,120 293.75,160" style="opacity: 1; fill: none; stroke: rgb(204, 204, 204);"/><path class="link" d="M343.75,80C343.75,120 581.25,120 581.25,160" style="opacity: 1; fill: none; stroke: rgb(204, 204, 204);"/><path class="link" d="M343.75,80C343.75,120 631.25,120 631.25,160" style="opacity: 1; fill: none; stroke: rgb(204, 204, 204);"/><path class="link" d="M6.25,160C6.25,200 131.25,200 131.25,240" style="opacity: 1; fill: none; stroke: rgb(204, 204, 204);"/><path class="link" d="M581.25,160C581.25,200 581.25,200 581.25,240" style="opacity: 1; fill: none; stroke: rgb(204, 204, 204);"/><path class="link" d="M-343.75,80C-343.75,120 -343.75,120 -343.75,160" style="opacity: 1; fill: none; stroke: rgb(204, 204, 204);"/><path class="link" d="M-343.75,80C-343.75,120 -293.75,120 -293.75,160" style="opacity: 1; fill: none; stroke: rgb(204, 204, 204);"/><path class="link" d="M-343.75,80C-343.75,120 -243.75,120 -243.75,160" style="opacity: 1; fill: none; stroke: rgb(204, 204, 204);"/><path class="link" d="M-343.75,80C-343.75,120 -193.75,120 -193.75,160" style="opacity: 1; fill: none; stroke: rgb(204, 204, 204);"/><path class="link" d="M6.25,160C6.25,200 -118.75,200 -118.75,240" style="opacity: 1; fill: none; stroke: rgb(204, 204, 204);"/><path class="link" d="M6.25,160C6.25,200 -68.75,200 -68.75,240" style="opacity: 1; fill: none; stroke: rgb(204, 204, 204);"/><path class="link" d="M6.25,160C6.25,200 6.25,200 6.25,240" style="opacity: 1; fill: none; stroke: rgb(204, 204, 204);"/><path class="link" d="M6.25,160C6.25,200 81.25,200 81.25,240" style="opacity: 1; fill: none; stroke: rgb(204, 204, 204);"/><path class="link" d="M-68.75,240C-68.75,280 -68.75,280 -68.75,320" style="opacity: 1; fill: none; stroke: rgb(204, 204, 204);"/><path class="link" d="M81.25,240C81.25,280 31.25,280 31.25,320" style="opacity: 1; fill: none; stroke: rgb(204, 204, 204);"/><path class="link" d="M81.25,240C81.25,280 81.25,280 81.25,320" style="opacity: 1; fill: none; stroke: rgb(204, 204, 204);"/><path class="link" d="M81.25,240C81.25,280 131.25,280 131.25,320" style="opacity: 1; fill: none; stroke: rgb(204, 204, 204);"/><path class="link" d="M81.25,320C81.25,360 81.25,360 81.25,400" style="opacity: 1; fill: none; stroke: rgb(204, 204, 204);"/><path class="link" d="M81.25,320C81.25,360 131.25,360 131.25,400" style="opacity: 1; fill: none; stroke: rgb(204, 204, 204);"/><path class="link" d="M81.25,320C81.25,360 181.25,360 181.25,400" style="opacity: 1; fill: none; stroke: rgb(204, 204, 204);"/><path class="link" d="M131.25,400C131.25,440 131.25,440 131.25,480" style="opacity: 1; fill: none; stroke: rgb(204, 204, 204);"/><path class="link" d="M131.25,480C131.25,520 131.25,520 131.25,560" style="opacity: 1; fill: none; stroke: rgb(204, 204, 204);"/><path class="link" d="M581.25,160C581.25,200 531.25,200 531.25,240" style="opacity: 1; fill: none; stroke: rgb(204, 204, 204);"/><path class="link" d="M531.25,240C531.25,280 356.25,280 356.25,320" style="opacity: 1; fill: none; stroke: rgb(204, 204, 204);"/><path class="link" d="M81.25,320C81.25,360 -18.75,360 -18.75,400" style="opacity: 1; fill: none; stroke: rgb(204, 204, 204);"/><path class="link" d="M81.25,320C81.25,360 31.25,360 31.25,400" style="opacity: 1; fill: none; stroke: rgb(204, 204, 204);"/><path class="link" d="M31.25,400C31.25,440 31.25,440 31.25,480" style="opacity: 1; fill: none; stroke: rgb(204, 204, 204);"/><path class="link" d="M31.25,480C31.25,520 31.25,520 31.25,560" style="opacity: 1; fill: none; stroke: rgb(204, 204, 204);"/><path class="link" d="M531.25,240C531.25,280 231.25,280 231.25,320" style="opacity: 1; fill: none; stroke: rgb(204, 204, 204);"/><path class="link" d="M531.25,240C531.25,280 281.25,280 281.25,320" style="opacity: 1; fill: none; stroke: rgb(204, 204, 204);"/><path class="link" d="M531.25,240C531.25,280 431.25,280 431.25,320" style="opacity: 1; fill: none; stroke: rgb(204, 204, 204);"/><path class="link" d="M531.25,240C531.25,280 531.25,280 531.25,320" style="opacity: 1; fill: none; stroke: rgb(204, 204, 204);"/><path class="link" d="M281.25,320C281.25,360 281.25,360 281.25,400" style="opacity: 1; fill: none; stroke: rgb(204, 204, 204);"/><path class="link" d="M581.25,160C581.25,200 481.25,200 481.25,240" style="opacity: 1; fill: none; stroke: rgb(204, 204, 204);"/><path class="link" d="M431.25,320C431.25,360 481.25,360 481.25,400" style="opacity: 1; fill: none; stroke: rgb(204, 204, 204);"/><path class="link" d="M-343.75,80C-343.75,120 -543.75,120 -543.75,160" style="opacity: 1; fill: none; stroke: rgb(204, 204, 204);"/><path class="link" d="M343.75,80C343.75,120 681.25,120 681.25,160" style="opacity: 1; fill: none; stroke: rgb(204, 204, 204);"/><path class="link" d="M343.75,80C343.75,120 731.25,120 731.25,160" style="opacity: 1; fill: none; stroke: rgb(204, 204, 204);"/><path class="link" d="M581.25,160C581.25,200 631.25,200 631.25,240" style="opacity: 1; fill: none; stroke: rgb(204, 204, 204);"/><path class="link" d="M581.25,160C581.25,200 681.25,200 681.25,240" style="opacity: 1; fill: none; stroke: rgb(204, 204, 204);"/><path class="link" d="M531.25,240C531.25,280 631.25,280 631.25,320" style="opacity: 1; fill: none; stroke: rgb(204, 204, 204);"/><path class="link" d="M531.25,240C531.25,280 706.25,280 706.25,320" style="opacity: 1; fill: none; stroke: rgb(204, 204, 204);"/><path class="link" d="M531.25,240C531.25,280 781.25,280 781.25,320" style="opacity: 1; fill: none; stroke: rgb(204, 204, 204);"/><path class="link" d="M531.25,240C531.25,280 831.25,280 831.25,320" style="opacity: 1; fill: none; stroke: rgb(204, 204, 204);"/><path class="link" d="M431.25,320C431.25,360 381.25,360 381.25,400" style="opacity: 1; fill: none; stroke: rgb(204, 204, 204);"/><path class="link" d="M431.25,320C431.25,360 431.25,360 431.25,400" style="opacity: 1; fill: none; stroke: rgb(204, 204, 204);"/><path class="link" d="M631.25,320C631.25,360 581.25,360 581.25,400" style="opacity: 1; fill: none; stroke: rgb(204, 204, 204);"/><path class="link" d="M631.25,320C631.25,360 631.25,360 631.25,400" style="opacity: 1; fill: none; stroke: rgb(204, 204, 204);"/><path class="link" d="M631.25,320C631.25,360 681.25,360 681.25,400" style="opacity: 1; fill: none; stroke: rgb(204, 204, 204);"/><path class="link" d="M781.25,320C781.25,360 781.25,360 781.25,400" style="opacity: 1; fill: none; stroke: rgb(204, 204, 204);"/><g class="node element" style="opacity: 1; font-size: 11px; font-weight: bold;" transform="translate(0,0)"><circle r="10" style="stroke-width: 1.5px; fill: steelblue; stroke: rgb(53, 94, 149);"/><text text-anchor="middle" dy="-15">html</text></g><g class="node element" style="opacity: 1; font-size: 11px; font-weight: bold;" transform="translate(-343.75,80)"><circle r="10" style="stroke-width: 1.5px; fill: steelblue; stroke: rgb(53, 94, 149);"/><text text-anchor="middle" dy="-15">head</text></g><g class="node text indent" style="opacity: 1; font-size: 11px; font-weight: bold;" transform="translate(-493.75,160)"><circle r="10" style="stroke-width: 1.5px; fill: rgb(255, 204, 0); stroke: orange;"/><text text-anchor="middle" dy="-15">#text</text></g><g class="node element" style="opacity: 1; font-size: 11px; font-weight: bold;" transform="translate(-443.75,160)"><circle r="10" style="stroke-width: 1.5px; fill: steelblue; stroke: rgb(53, 94, 149);"/><text text-anchor="middle" dy="-15">meta</text></g><g class="node element" style="opacity: 1; font-size: 11px; font-weight: bold;" transform="translate(-393.75,160)"><circle r="10" style="stroke-width: 1.5px; fill: steelblue; stroke: rgb(53, 94, 149);"/><text text-anchor="middle" dy="-15">title</text></g><g class="node text" style="opacity: 1; font-size: 11px; font-weight: bold;" transform="translate(-393.75,240)"><circle r="10" style="stroke-width: 1.5px; fill: rgb(80, 180, 86); stroke: rgb(13, 149, 44);"/><text text-anchor="middle" dy="-15">#text</text></g><g class="node text indent" style="opacity: 1; font-size: 11px; font-weight: bold;" transform="translate(-143.75,160)"><circle r="10" style="stroke-width: 1.5px; fill: rgb(255, 204, 0); stroke: orange;"/><text text-anchor="middle" dy="-15">#text</text></g><g class="node text indent" style="opacity: 1; font-size: 11px; font-weight: bold;" transform="translate(0,80)"><circle r="10" style="stroke-width: 1.5px; fill: rgb(255, 204, 0); stroke: orange;"/><text text-anchor="middle" dy="-15">#text</text></g><g class="node element" style="opacity: 1; font-size: 11px; font-weight: bold;" transform="translate(343.75,80)"><circle r="10" style="stroke-width: 1.5px; fill: steelblue; stroke: rgb(53, 94, 149);"/><text text-anchor="middle" dy="-15">body</text></g><g class="node text indent" style="opacity: 1; font-size: 11px; font-weight: bold;" transform="translate(-43.75,160)"><circle r="10" style="stroke-width: 1.5px; fill: rgb(255, 204, 0); stroke: orange;"/><text text-anchor="middle" dy="-15">#text</text></g><g class="node element" style="opacity: 1; font-size: 11px; font-weight: bold;" transform="translate(6.25,160)"><circle r="10" style="stroke-width: 1.5px; fill: steelblue; stroke: rgb(53, 94, 149);"/><text text-anchor="middle" dy="-15">header</text></g><g class="node text" style="opacity: 1; font-size: 11px; font-weight: bold;" transform="translate(131.25,240)"><circle r="10" style="stroke-width: 1.5px; fill: rgb(80, 180, 86); stroke: rgb(13, 149, 44);"/><text text-anchor="middle" dy="-15">#text</text></g><g class="node text indent" style="opacity: 1; font-size: 11px; font-weight: bold;" transform="translate(293.75,160)"><circle r="10" style="stroke-width: 1.5px; fill: rgb(255, 204, 0); stroke: orange;"/><text text-anchor="middle" dy="-15">#text</text></g><g class="node element" style="opacity: 1; font-size: 11px; font-weight: bold;" transform="translate(581.25,160)"><circle r="10" style="stroke-width: 1.5px; fill: steelblue; stroke: rgb(53, 94, 149);"/><text text-anchor="middle" dy="-15">main.contenedor-login</text></g><g class="node text indent" style="opacity: 1; font-size: 11px; font-weight: bold;" transform="translate(581.25,240)"><circle r="10" style="stroke-width: 1.5px; fill: rgb(255, 204, 0); stroke: orange;"/><text text-anchor="middle" dy="-15">#text</text></g><g class="node text indent" style="opacity: 1; font-size: 11px; font-weight: bold;" transform="translate(631.25,160)"><circle r="10" style="stroke-width: 1.5px; fill: rgb(255, 204, 0); stroke: orange;"/><text text-anchor="middle" dy="-15">#text</text></g><g class="node text indent" style="opacity: 1; font-size: 11px; font-weight: bold;" transform="translate(-343.75,160)"><circle r="10" style="stroke-width: 1.5px; fill: rgb(255, 204, 0); stroke: orange;"/><text text-anchor="middle" dy="-15">#text</text></g><g class="node element" style="opacity: 1; font-size: 11px; font-weight: bold;" transform="translate(-293.75,160)"><circle r="10" style="stroke-width: 1.5px; fill: steelblue; stroke: rgb(53, 94, 149);"/><text text-anchor="middle" dy="-15">link</text></g><g class="node text indent" style="opacity: 1; font-size: 11px; font-weight: bold;" transform="translate(-243.75,160)"><circle r="10" style="stroke-width: 1.5px; fill: rgb(255, 204, 0); stroke: orange;"/><text text-anchor="middle" dy="-15">#text</text></g><g class="node element" style="opacity: 1; font-size: 11px; font-weight: bold;" transform="translate(-193.75,160)"><circle r="10" style="stroke-width: 1.5px; fill: steelblue; stroke: rgb(53, 94, 149);"/><text text-anchor="middle" dy="-15">link</text></g><g class="node text indent" style="opacity: 1; font-size: 11px; font-weight: bold;" transform="translate(-118.75,240)"><circle r="10" style="stroke-width: 1.5px; fill: rgb(255, 204, 0); stroke: orange;"/><text text-anchor="middle" dy="-15">#text</text></g><g class="node element" style="opacity: 1; font-size: 11px; font-weight: bold;" transform="translate(-68.75,240)"><circle r="10" style="stroke-width: 1.5px; fill: steelblue; stroke: rgb(53, 94, 149);"/><text text-anchor="middle" dy="-15">h1</text></g><g class="node text" style="opacity: 1; font-size: 11px; font-weight: bold;" transform="translate(-68.75,320)"><circle r="10" style="stroke-width: 1.5px; fill: rgb(80, 180, 86); stroke: rgb(13, 149, 44);"/><text text-anchor="middle" dy="-15">#text</text></g><g class="node text indent" style="opacity: 1; font-size: 11px; font-weight: bold;" transform="translate(6.25,240)"><circle r="10" style="stroke-width: 1.5px; fill: rgb(255, 204, 0); stroke: orange;"/><text text-anchor="middle" dy="-15">#text</text></g><g class="node element" style="opacity: 1; font-size: 11px; font-weight: bold;" transform="translate(81.25,240)"><circle r="10" style="stroke-width: 1.5px; fill: steelblue; stroke: rgb(53, 94, 149);"/><text text-anchor="middle" dy="-15">nav</text></g><g class="node text indent" style="opacity: 1; font-size: 11px; font-weight: bold;" transform="translate(31.25,320)"><circle r="10" style="stroke-width: 1.5px; fill: rgb(255, 204, 0); stroke: orange;"/><text text-anchor="middle" dy="-15">#text</text></g><g class="node element" style="opacity: 1; font-size: 11px; font-weight: bold;" transform="translate(81.25,320)"><circle r="10" style="stroke-width: 1.5px; fill: steelblue; stroke: rgb(53, 94, 149);"/><text text-anchor="middle" dy="-15">ul</text></g><g class="node text indent" style="opacity: 1; font-size: 11px; font-weight: bold;" transform="translate(81.25,400)"><circle r="10" style="stroke-width: 1.5px; fill: rgb(255, 204, 0); stroke: orange;"/><text text-anchor="middle" dy="-15">#text</text></g><g class="node element" style="opacity: 1; font-size: 11px; font-weight: bold;" transform="translate(131.25,400)"><circle r="10" style="stroke-width: 1.5px; fill: steelblue; stroke: rgb(53, 94, 149);"/><text text-anchor="middle" dy="-15">li</text></g><g class="node element" style="opacity: 1; font-size: 11px; font-weight: bold;" transform="translate(131.25,480)"><circle r="10" style="stroke-width: 1.5px; fill: steelblue; stroke: rgb(53, 94, 149);"/><text text-anchor="middle" dy="-15">a</text></g><g class="node text" style="opacity: 1; font-size: 11px; font-weight: bold;" transform="translate(131.25,560)"><circle r="10" style="stroke-width: 1.5px; fill: rgb(80, 180, 86); stroke: rgb(13, 149, 44);"/><text text-anchor="middle" dy="-15">#text</text></g><g class="node text indent" style="opacity: 1; font-size: 11px; font-weight: bold;" transform="translate(181.25,400)"><circle r="10" style="stroke-width: 1.5px; fill: rgb(255, 204, 0); stroke: orange;"/><text text-anchor="middle" dy="-15">#text</text></g><g class="node text indent" style="opacity: 1; font-size: 11px; font-weight: bold;" transform="translate(131.25,320)"><circle r="10" style="stroke-width: 1.5px; fill: rgb(255, 204, 0); stroke: orange;"/><text text-anchor="middle" dy="-15">#text</text></g><g class="node element" style="opacity: 1; font-size: 11px; font-weight: bold;" transform="translate(531.25,240)"><circle r="10" style="stroke-width: 1.5px; fill: steelblue; stroke: rgb(53, 94, 149);"/><text text-anchor="middle" dy="-15">form#formLogin</text></g><g class="node text" style="opacity: 1; font-size: 11px; font-weight: bold;" transform="translate(356.25,320)"><circle r="10" style="stroke-width: 1.5px; fill: rgb(80, 180, 86); stroke: rgb(13, 149, 44);"/><text text-anchor="middle" dy="-15">#text</text></g><g class="node text indent" style="opacity: 1; font-size: 11px; font-weight: bold;" transform="translate(-18.75,400)"><circle r="10" style="stroke-width: 1.5px; fill: rgb(255, 204, 0); stroke: orange;"/><text text-anchor="middle" dy="-15">#text</text></g><g class="node element" style="opacity: 1; font-size: 11px; font-weight: bold;" transform="translate(31.25,400)"><circle r="10" style="stroke-width: 1.5px; fill: steelblue; stroke: rgb(53, 94, 149);"/><text text-anchor="middle" dy="-15">li</text></g><g class="node element" style="opacity: 1; font-size: 11px; font-weight: bold;" transform="translate(31.25,480)"><circle r="10" style="stroke-width: 1.5px; fill: steelblue; stroke: rgb(53, 94, 149);"/><text text-anchor="middle" dy="-15">a</text></g><g class="node text" style="opacity: 1; font-size: 11px; font-weight: bold;" transform="translate(31.25,560)"><circle r="10" style="stroke-width: 1.5px; fill: rgb(80, 180, 86); stroke: rgb(13, 149, 44);"/><text text-anchor="middle" dy="-15">#text</text></g><g class="node text indent" style="opacity: 1; font-size: 11px; font-weight: bold;" transform="translate(231.25,320)"><circle r="10" style="stroke-width: 1.5px; fill: rgb(255, 204, 0); stroke: orange;"/><text text-anchor="middle" dy="-15">#text</text></g><g class="node element" style="opacity: 1; font-size: 11px; font-weight: bold;" transform="translate(281.25,320)"><circle r="10" style="stroke-width: 1.5px; fill: steelblue; stroke: rgb(53, 94, 149);"/><text text-anchor="middle" dy="-15">h2</text></g><g class="node text" style="opacity: 1; font-size: 11px; font-weight: bold;" transform="translate(281.25,400)"><circle r="10" style="stroke-width: 1.5px; fill: rgb(80, 180, 86); stroke: rgb(13, 149, 44);"/><text text-anchor="middle" dy="-15">#text</text></g><g class="node element" style="opacity: 1; font-size: 11px; font-weight: bold;" transform="translate(431.25,320)"><circle r="10" style="stroke-width: 1.5px; fill: steelblue; stroke: rgb(53, 94, 149);"/><text text-anchor="middle" dy="-15">label</text></g><g class="node text indent" style="opacity: 1; font-size: 11px; font-weight: bold;" transform="translate(531.25,320)"><circle r="10" style="stroke-width: 1.5px; fill: rgb(255, 204, 0); stroke: orange;"/><text text-anchor="middle" dy="-15">#text</text></g><g class="node text indent" style="opacity: 1; font-size: 11px; font-weight: bold;" transform="translate(481.25,240)"><circle r="10" style="stroke-width: 1.5px; fill: rgb(255, 204, 0); stroke: orange;"/><text text-anchor="middle" dy="-15">#text</text></g><g class="node text indent" style="opacity: 1; font-size: 11px; font-weight: bold;" transform="translate(481.25,400)"><circle r="10" style="stroke-width: 1.5px; fill: rgb(255, 204, 0); stroke: orange;"/><text text-anchor="middle" dy="-15">#text</text></g><g class="node text indent" style="opacity: 1; font-size: 11px; font-weight: bold;" transform="translate(-543.75,160)"><circle r="10" style="stroke-width: 1.5px; fill: rgb(255, 204, 0); stroke: orange;"/><text text-anchor="middle" dy="-15">#text</text></g><g class="node text" style="opacity: 1; font-size: 11px; font-weight: bold;" transform="translate(381.25,400)"><circle r="10" style="stroke-width: 1.5px; fill: rgb(80, 180, 86); stroke: rgb(13, 149, 44);"/><text text-anchor="middle" dy="-15">#text</text></g><g class="node element" style="opacity: 1; font-size: 11px; font-weight: bold;" transform="translate(431.25,400)"><circle r="10" style="stroke-width: 1.5px; fill: steelblue; stroke: rgb(53, 94, 149);"/><text text-anchor="middle" dy="-15">input#correoLogin</text></g><g class="node element" style="opacity: 1; font-size: 11px; font-weight: bold;" transform="translate(631.25,320)"><circle r="10" style="stroke-width: 1.5px; fill: steelblue; stroke: rgb(53, 94, 149);"/><text text-anchor="middle" dy="-15">label</text></g><g class="node text" style="opacity: 1; font-size: 11px; font-weight: bold;" transform="translate(581.25,400)"><circle r="10" style="stroke-width: 1.5px; fill: rgb(80, 180, 86); stroke: rgb(13, 149, 44);"/><text text-anchor="middle" dy="-15">#text</text></g><g class="node element" style="opacity: 1; font-size: 11px; font-weight: bold;" transform="translate(631.25,400)"><circle r="10" style="stroke-width: 1.5px; fill: steelblue; stroke: rgb(53, 94, 149);"/><text text-anchor="middle" dy="-15">input#contrasenaLogin</text></g><g class="node text indent" style="opacity: 1; font-size: 11px; font-weight: bold;" transform="translate(681.25,400)"><circle r="10" style="stroke-width: 1.5px; fill: rgb(255, 204, 0); stroke: orange;"/><text text-anchor="middle" dy="-15">#text</text></g><g class="node text indent" style="opacity: 1; font-size: 11px; font-weight: bold;" transform="translate(706.25,320)"><circle r="10" style="stroke-width: 1.5px; fill: rgb(255, 204, 0); stroke: orange;"/><text text-anchor="middle" dy="-15">#text</text></g><g class="node element" style="opacity: 1; font-size: 11px; font-weight: bold;" transform="translate(781.25,320)"><circle r="10" style="stroke-width: 1.5px; fill: steelblue; stroke: rgb(53, 94, 149);"/><text text-anchor="middle" dy="-15">button</text></g><g class="node text" style="opacity: 1; font-size: 11px; font-weight: bold;" transform="translate(781.25,400)"><circle r="10" style="stroke-width: 1.5px; fill: rgb(80, 180, 86); stroke: rgb(13, 149, 44);"/><text text-anchor="middle" dy="-15">#text</text></g><g class="node text indent" style="opacity: 1; font-size: 11px; font-weight: bold;" transform="translate(831.25,320)"><circle r="10" style="stroke-width: 1.5px; fill: rgb(255, 204, 0); stroke: orange;"/><text text-anchor="middle" dy="-15">#text</text></g><g class="node element" style="opacity: 1; font-size: 11px; font-weight: bold;" transform="translate(631.25,240)"><circle r="10" style="stroke-width: 1.5px; fill: steelblue; stroke: rgb(53, 94, 149);"/><text text-anchor="middle" dy="-15">p#mensajeLogin</text></g><g class="node text indent" style="opacity: 1; font-size: 11px; font-weight: bold;" transform="translate(681.25,240)"><circle r="10" style="stroke-width: 1.5px; fill: rgb(255, 204, 0); stroke: orange;"/><text text-anchor="middle" dy="-15">#text</text></g><g class="node element" style="opacity: 1; font-size: 11px; font-weight: bold;" transform="translate(681.25,160)"><circle r="10" style="stroke-width: 1.5px; fill: steelblue; stroke: rgb(53, 94, 149);"/><text text-anchor="middle" dy="-15">script</text></g><g class="node text indent" style="opacity: 1; font-size: 11px; font-weight: bold;" transform="translate(731.25,160)"><circle r="10" style="stroke-width: 1.5px; fill: rgb(255, 204, 0); stroke: orange;"/><text text-anchor="middle" dy="-15">#text</text></g></g></svg>