<svg xmlns="http://www.w3.org/2000/svg" width="2470" height="605"><g transform="translate(826.25,30)"><path class="link" d="M0,0C0,40 -506.25,40 -506.25,80" style="opacity: 1; fill: none; stroke: rgb(204, 204, 204);"/><path class="link" d="M0,0C0,40 0,40 0,80" style="opacity: 1; fill: none; stroke: rgb(204, 204, 204);"/><path class="link" d="M0,0C0,40 506.25,40 506.25,80" style="opacity: 1; fill: none; stroke: rgb(204, 204, 204);"/><path class="link" d="M-506.25,80C-506.25,120 -706.25,120 -706.25,160" style="opacity: 1; fill: none; stroke: rgb(204, 204, 204);"/><path class="link" d="M-506.25,80C-506.25,120 -656.25,120 -656.25,160" style="opacity: 1; fill: none; stroke: rgb(204, 204, 204);"/><path class="link" d="M-506.25,80C-506.25,120 -206.25,120 -206.25,160" style="opacity: 1; fill: none; stroke: rgb(204, 204, 204);"/><path class="link" d="M-656.25,160C-656.25,200 -656.25,200 -656.25,240" style="opacity: 1; fill: none; stroke: rgb(204, 204, 204);"/><path class="link" d="M506.25,80C506.25,120 -6.25,120 -6.25,160" style="opacity: 1; fill: none; stroke: rgb(204, 204, 204);"/><path class="link" d="M506.25,80C506.25,120 43.75,120 43.75,160" style="opacity: 1; fill: none; stroke: rgb(204, 204, 204);"/><path class="link" d="M506.25,80C506.25,120 275,120 275,160" style="opacity: 1; fill: none; stroke: rgb(204, 204, 204);"/><path class="link" d="M506.25,80C506.25,120 968.75,120 968.75,160" style="opacity: 1; fill: none; stroke: rgb(204, 204, 204);"/><path class="link" d="M506.25,80C506.25,120 1018.75,120 1018.75,160" style="opacity: 1; fill: none; stroke: rgb(204, 204, 204);"/><path class="link" d="M43.75,160C43.75,200 168.75,200 168.75,240" style="opacity: 1; fill: none; stroke: rgb(204, 204, 204);"/><path class="link" d="M968.75,160C968.75,200 968.75,200 968.75,240" style="opacity: 1; fill: none; stroke: rgb(204, 204, 204);"/><path class="link" d="M-506.25,80C-506.25,120 -506.25,120 -506.25,160" style="opacity: 1; fill: none; stroke: rgb(204, 204, 204);"/><path class="link" d="M-506.25,80C-506.25,120 -456.25,120 -456.25,160" style="opacity: 1; fill: none; stroke: rgb(204, 204, 204);"/><path class="link" d="M-506.25,80C-506.25,120 -406.25,120 -406.25,160" style="opacity: 1; fill: none; stroke: rgb(204, 204, 204);"/><path class="link" d="M-506.25,80C-506.25,120 -256.25,120 -256.25,160" style="opacity: 1; fill: none; stroke: rgb(204, 204, 204);"/><path class="link" d="M43.75,160C43.75,200 -81.25,200 -81.25,240" style="opacity: 1; fill: none; stroke: rgb(204, 204, 204);"/><path class="link" d="M43.75,160C43.75,200 -31.25,200 -31.25,240" style="opacity: 1; fill: none; stroke: rgb(204, 204, 204);"/><path class="link" d="M43.75,160C43.75,200 43.75,200 43.75,240" style="opacity: 1; fill: none; stroke: rgb(204, 204, 204);"/><path class="link" d="M43.75,160C43.75,200 118.75,200 118.75,240" style="opacity: 1; fill: none; stroke: rgb(204, 204, 204);"/><path class="link" d="M-31.25,240C-31.25,280 -31.25,280 -31.25,320" style="opacity: 1; fill: none; stroke: rgb(204, 204, 204);"/><path class="link" d="M118.75,240C118.75,280 68.75,280 68.75,320" style="opacity: 1; fill: none; stroke: rgb(204, 204, 204);"/><path class="link" d="M118.75,240C118.75,280 118.75,280 118.75,320" style="opacity: 1; fill: none; stroke: rgb(204, 204, 204);"/><path class="link" d="M118.75,240C118.75,280 168.75,280 168.75,320" style="opacity: 1; fill: none; stroke: rgb(204, 204, 204);"/><path class="link" d="M118.75,320C118.75,360 118.75,360 118.75,400" style="opacity: 1; fill: none; stroke: rgb(204, 204, 204);"/><path class="link" d="M118.75,320C118.75,360 168.75,360 168.75,400" style="opacity: 1; fill: none; stroke: rgb(204, 204, 204);"/><path class="link" d="M118.75,320C118.75,360 218.75,360 218.75,400" style="opacity: 1; fill: none; stroke: rgb(204, 204, 204);"/><path class="link" d="M168.75,400C168.75,440 168.75,440 168.75,480" style="opacity: 1; fill: none; stroke: rgb(204, 204, 204);"/><path class="link" d="M168.75,480C168.75,520 168.75,520 168.75,560" style="opacity: 1; fill: none; stroke: rgb(204, 204, 204);"/><path class="link" d="M968.75,160C968.75,200 918.75,200 918.75,240" style="opacity: 1; fill: none; stroke: rgb(204, 204, 204);"/><path class="link" d="M118.75,320C118.75,360 18.75,360 18.75,400" style="opacity: 1; fill: none; stroke: rgb(204, 204, 204);"/><path class="link" d="M118.75,320C118.75,360 68.75,360 68.75,400" style="opacity: 1; fill: none; stroke: rgb(204, 204, 204);"/><path class="link" d="M68.75,400C68.75,440 68.75,440 68.75,480" style="opacity: 1; fill: none; stroke: rgb(204, 204, 204);"/><path class="link" d="M68.75,480C68.75,520 68.75,520 68.75,560" style="opacity: 1; fill: none; stroke: rgb(204, 204, 204);"/><path class="link" d="M918.75,240C918.75,280 768.75,280 768.75,320" style="opacity: 1; fill: none; stroke: rgb(204, 204, 204);"/><path class="link" d="M918.75,240C918.75,280 1168.75,280 1168.75,320" style="opacity: 1; fill: none; stroke: rgb(204, 204, 204);"/><path class="link" d="M968.75,160C968.75,200 868.75,200 868.75,240" style="opacity: 1; fill: none; stroke: rgb(204, 204, 204);"/><path class="link" d="M-506.25,80C-506.25,120 -806.25,120 -806.25,160" style="opacity: 1; fill: none; stroke: rgb(204, 204, 204);"/><path class="link" d="M506.25,80C506.25,120 1068.75,120 1068.75,160" style="opacity: 1; fill: none; stroke: rgb(204, 204, 204);"/><path class="link" d="M506.25,80C506.25,120 1118.75,120 1118.75,160" style="opacity: 1; fill: none; stroke: rgb(204, 204, 204);"/><path class="link" d="M918.75,240C918.75,280 1268.75,280 1268.75,320" style="opacity: 1; fill: none; stroke: rgb(204, 204, 204);"/><path class="link" d="M918.75,240C918.75,280 1393.75,280 1393.75,320" style="opacity: 1; fill: none; stroke: rgb(204, 204, 204);"/><path class="link" d="M918.75,240C918.75,280 1568.75,280 1568.75,320" style="opacity: 1; fill: none; stroke: rgb(204, 204, 204);"/><path class="link" d="M1268.75,320C1268.75,360 1318.75,360 1318.75,400" style="opacity: 1; fill: none; stroke: rgb(204, 204, 204);"/><path class="link" d="M-506.25,80C-506.25,120 -756.25,120 -756.25,160" style="opacity: 1; fill: none; stroke: rgb(204, 204, 204);"/><path class="link" d="M-506.25,80C-506.25,120 -606.25,120 -606.25,160" style="opacity: 1; fill: none; stroke: rgb(204, 204, 204);"/><path class="link" d="M-506.25,80C-506.25,120 -556.25,120 -556.25,160" style="opacity: 1; fill: none; stroke: rgb(204, 204, 204);"/><path class="link" d="M-506.25,80C-506.25,120 -356.25,120 -356.25,160" style="opacity: 1; fill: none; stroke: rgb(204, 204, 204);"/><path class="link" d="M-506.25,80C-506.25,120 -306.25,120 -306.25,160" style="opacity: 1; fill: none; stroke: rgb(204, 204, 204);"/><path class="link" d="M506.25,80C506.25,120 -106.25,120 -106.25,160" style="opacity: 1; fill: none; stroke: rgb(204, 204, 204);"/><path class="link" d="M506.25,80C506.25,120 -56.25,120 -56.25,160" style="opacity: 1; fill: none; stroke: rgb(204, 204, 204);"/><path class="link" d="M506.25,80C506.25,120 506.25,120 506.25,160" style="opacity: 1; fill: none; stroke: rgb(204, 204, 204);"/><path class="link" d="M506.25,80C506.25,120 737.5,120 737.5,160" style="opacity: 1; fill: none; stroke: rgb(204, 204, 204);"/><path class="link" d="M968.75,160C968.75,200 1018.75,200 1018.75,240" style="opacity: 1; fill: none; stroke: rgb(204, 204, 204);"/><path class="link" d="M968.75,160C968.75,200 1068.75,200 1068.75,240" style="opacity: 1; fill: none; stroke: rgb(204, 204, 204);"/><path class="link" d="M918.75,240C918.75,280 268.75,280 268.75,320" style="opacity: 1; fill: none; stroke: rgb(204, 204, 204);"/><path class="link" d="M918.75,240C918.75,280 318.75,280 318.75,320" style="opacity: 1; fill: none; stroke: rgb(204, 204, 204);"/><path class="link" d="M918.75,240C918.75,280 393.75,280 393.75,320" style="opacity: 1; fill: none; stroke: rgb(204, 204, 204);"/><path class="link" d="M918.75,240C918.75,280 468.75,280 468.75,320" style="opacity: 1; fill: none; stroke: rgb(204, 204, 204);"/><path class="link" d="M918.75,240C918.75,280 568.75,280 568.75,320" style="opacity: 1; fill: none; stroke: rgb(204, 204, 204);"/><path class="link" d="M918.75,240C918.75,280 668.75,280 668.75,320" style="opacity: 1; fill: none; stroke: rgb(204, 204, 204);"/><path class="link" d="M918.75,240C918.75,280 868.75,280 868.75,320" style="opacity: 1; fill: none; stroke: rgb(204, 204, 204);"/><path class="link" d="M918.75,240C918.75,280 968.75,280 968.75,320" style="opacity: 1; fill: none; stroke: rgb(204, 204, 204);"/><path class="link" d="M918.75,240C918.75,280 1068.75,280 1068.75,320" style="opacity: 1; fill: none; stroke: rgb(204, 204, 204);"/><path class="link" d="M918.75,240C918.75,280 1518.75,280 1518.75,320" style="opacity: 1; fill: none; stroke: rgb(204, 204, 204);"/><path class="link" d="M318.75,320C318.75,360 318.75,360 318.75,400" style="opacity: 1; fill: none; stroke: rgb(204, 204, 204);"/><path class="link" d="M468.75,320C468.75,360 418.75,360 418.75,400" style="opacity: 1; fill: none; stroke: rgb(204, 204, 204);"/><path class="link" d="M468.75,320C468.75,360 468.75,360 468.75,400" style="opacity: 1; fill: none; stroke: rgb(204, 204, 204);"/><path class="link" d="M468.75,320C468.75,360 518.75,360 518.75,400" style="opacity: 1; fill: none; stroke: rgb(204, 204, 204);"/><path class="link" d="M668.75,320C668.75,360 618.75,360 618.75,400" style="opacity: 1; fill: none; stroke: rgb(204, 204, 204);"/><path class="link" d="M668.75,320C668.75,360 668.75,360 668.75,400" style="opacity: 1; fill: none; stroke: rgb(204, 204, 204);"/><path class="link" d="M668.75,320C668.75,360 718.75,360 718.75,400" style="opacity: 1; fill: none; stroke: rgb(204, 204, 204);"/><path class="link" d="M868.75,320C868.75,360 818.75,360 818.75,400" style="opacity: 1; fill: none; stroke: rgb(204, 204, 204);"/><path class="link" d="M868.75,320C868.75,360 868.75,360 868.75,400" style="opacity: 1; fill: none; stroke: rgb(204, 204, 204);"/><path class="link" d="M868.75,320C868.75,360 918.75,360 918.75,400" style="opacity: 1; fill: none; stroke: rgb(204, 204, 204);"/><path class="link" d="M1068.75,320C1068.75,360 1018.75,360 1018.75,400" style="opacity: 1; fill: none; stroke: rgb(204, 204, 204);"/><path class="link" d="M1068.75,320C1068.75,360 1068.75,360 1068.75,400" style="opacity: 1; fill: none; stroke: rgb(204, 204, 204);"/><path class="link" d="M1068.75,320C1068.75,360 1118.75,360 1118.75,400" style="opacity: 1; fill: none; stroke: rgb(204, 204, 204);"/><path class="link" d="M1268.75,320C1268.75,360 1218.75,360 1218.75,400" style="opacity: 1; fill: none; stroke: rgb(204, 204, 204);"/><path class="link" d="M1268.75,320C1268.75,360 1268.75,360 1268.75,400" style="opacity: 1; fill: none; stroke: rgb(204, 204, 204);"/><path class="link" d="M1518.75,320C1518.75,360 1418.75,360 1418.75,400" style="opacity: 1; fill: none; stroke: rgb(204, 204, 204);"/><path class="link" d="M1518.75,320C1518.75,360 1468.75,360 1468.75,400" style="opacity: 1; fill: none; stroke: rgb(204, 204, 204);"/><path class="link" d="M1518.75,320C1518.75,360 1518.75,360 1518.75,400" style="opacity: 1; fill: none; stroke: rgb(204, 204, 204);"/><path class="link" d="M1518.75,320C1518.75,360 1568.75,360 1568.75,400" style="opacity: 1; fill: none; stroke: rgb(204, 204, 204);"/><path class="link" d="M1518.75,320C1518.75,360 1618.75,360 1618.75,400" style="opacity: 1; fill: none; stroke: rgb(204, 204, 204);"/><path class="link" d="M1468.75,400C1468.75,440 1468.75,440 1468.75,480" style="opacity: 1; fill: none; stroke: rgb(204, 204, 204);"/><path class="link" d="M1568.75,400C1568.75,440 1568.75,440 1568.75,480" style="opacity: 1; fill: none; stroke: rgb(204, 204, 204);"/><g class="node element" style="opacity: 1; font-size: 11px; font-weight: bold;" transform="translate(0,0)"><circle r="10" style="stroke-width: 1.5px; fill: steelblue; stroke: rgb(53, 94, 149);"/><text text-anchor="middle" dy="-15">html</text></g><g class="node element" style="opacity: 1; font-size: 11px; font-weight: bold;" transform="translate(-506.25,80)"><circle r="10" style="stroke-width: 1.5px; fill: steelblue; stroke: rgb(53, 94, 149);"/><text text-anchor="middle" dy="-15">head</text></g><g class="node text indent" style="opacity: 1; font-size: 11px; font-weight: bold;" transform="translate(-706.25,160)"><circle r="10" style="stroke-width: 1.5px; fill: rgb(255, 204, 0); stroke: orange;"/><text text-anchor="middle" dy="-15">#text</text></g><g class="node element" style="opacity: 1; font-size: 11px; font-weight: bold;" transform="translate(-656.25,160)"><circle r="10" style="stroke-width: 1.5px; fill: steelblue; stroke: rgb(53, 94, 149);"/><text text-anchor="middle" dy="-15">title</text></g><g class="node text" style="opacity: 1; font-size: 11px; font-weight: bold;" transform="translate(-656.25,240)"><circle r="10" style="stroke-width: 1.5px; fill: rgb(80, 180, 86); stroke: rgb(13, 149, 44);"/><text text-anchor="middle" dy="-15">#text</text></g><g class="node text indent" style="opacity: 1; font-size: 11px; font-weight: bold;" transform="translate(-206.25,160)"><circle r="10" style="stroke-width: 1.5px; fill: rgb(255, 204, 0); stroke: orange;"/><text text-anchor="middle" dy="-15">#text</text></g><g class="node text indent" style="opacity: 1; font-size: 11px; font-weight: bold;" transform="translate(0,80)"><circle r="10" style="stroke-width: 1.5px; fill: rgb(255, 204, 0); stroke: orange;"/><text text-anchor="middle" dy="-15">#text</text></g><g class="node element" style="opacity: 1; font-size: 11px; font-weight: bold;" transform="translate(506.25,80)"><circle r="10" style="stroke-width: 1.5px; fill: steelblue; stroke: rgb(53, 94, 149);"/><text text-anchor="middle" dy="-15">body</text></g><g class="node text indent" style="opacity: 1; font-size: 11px; font-weight: bold;" transform="translate(-6.25,160)"><circle r="10" style="stroke-width: 1.5px; fill: rgb(255, 204, 0); stroke: orange;"/><text text-anchor="middle" dy="-15">#text</text></g><g class="node element" style="opacity: 1; font-size: 11px; font-weight: bold;" transform="translate(43.75,160)"><circle r="10" style="stroke-width: 1.5px; fill: steelblue; stroke: rgb(53, 94, 149);"/><text text-anchor="middle" dy="-15">header</text></g><g class="node text" style="opacity: 1; font-size: 11px; font-weight: bold;" transform="translate(168.75,240)"><circle r="10" style="stroke-width: 1.5px; fill: rgb(80, 180, 86); stroke: rgb(13, 149, 44);"/><text text-anchor="middle" dy="-15">#text</text></g><g class="node text indent" style="opacity: 1; font-size: 11px; font-weight: bold;" transform="translate(275,160)"><circle r="10" style="stroke-width: 1.5px; fill: rgb(255, 204, 0); stroke: orange;"/><text text-anchor="middle" dy="-15">#text</text></g><g class="node element" style="opacity: 1; font-size: 11px; font-weight: bold;" transform="translate(968.75,160)"><circle r="10" style="stroke-width: 1.5px; fill: steelblue; stroke: rgb(53, 94, 149);"/><text text-anchor="middle" dy="-15">main.contenedor-registro</text></g><g class="node text indent" style="opacity: 1; font-size: 11px; font-weight: bold;" transform="translate(968.75,240)"><circle r="10" style="stroke-width: 1.5px; fill: rgb(255, 204, 0); stroke: orange;"/><text text-anchor="middle" dy="-15">#text</text></g><g class="node text indent" style="opacity: 1; font-size: 11px; font-weight: bold;" transform="translate(1018.75,160)"><circle r="10" style="stroke-width: 1.5px; fill: rgb(255, 204, 0); stroke: orange;"/><text text-anchor="middle" dy="-15">#text</text></g><g class="node text indent" style="opacity: 1; font-size: 11px; font-weight: bold;" transform="translate(-506.25,160)"><circle r="10" style="stroke-width: 1.5px; fill: rgb(255, 204, 0); stroke: orange;"/><text text-anchor="middle" dy="-15">#text</text></g><g class="node element" style="opacity: 1; font-size: 11px; font-weight: bold;" transform="translate(-456.25,160)"><circle r="10" style="stroke-width: 1.5px; fill: steelblue; stroke: rgb(53, 94, 149);"/><text text-anchor="middle" dy="-15">link</text></g><g class="node text indent" style="opacity: 1; font-size: 11px; font-weight: bold;" transform="translate(-406.25,160)"><circle r="10" style="stroke-width: 1.5px; fill: rgb(255, 204, 0); stroke: orange;"/><text text-anchor="middle" dy="-15">#text</text></g><g class="node element" style="opacity: 1; font-size: 11px; font-weight: bold;" transform="translate(-256.25,160)"><circle r="10" style="stroke-width: 1.5px; fill: steelblue; stroke: rgb(53, 94, 149);"/><text text-anchor="middle" dy="-15">link</text></g><g class="node text indent" style="opacity: 1; font-size: 11px; font-weight: bold;" transform="translate(-81.25,240)"><circle r="10" style="stroke-width: 1.5px; fill: rgb(255, 204, 0); stroke: orange;"/><text text-anchor="middle" dy="-15">#text</text></g><g class="node element" style="opacity: 1; font-size: 11px; font-weight: bold;" transform="translate(-31.25,240)"><circle r="10" style="stroke-width: 1.5px; fill: steelblue; stroke: rgb(53, 94, 149);"/><text text-anchor="middle" dy="-15">h1</text></g><g class="node text" style="opacity: 1; font-size: 11px; font-weight: bold;" transform="translate(-31.25,320)"><circle r="10" style="stroke-width: 1.5px; fill: rgb(80, 180, 86); stroke: rgb(13, 149, 44);"/><text text-anchor="middle" dy="-15">#text</text></g><g class="node text indent" style="opacity: 1; font-size: 11px; font-weight: bold;" transform="translate(43.75,240)"><circle r="10" style="stroke-width: 1.5px; fill: rgb(255, 204, 0); stroke: orange;"/><text text-anchor="middle" dy="-15">#text</text></g><g class="node element" style="opacity: 1; font-size: 11px; font-weight: bold;" transform="translate(118.75,240)"><circle r="10" style="stroke-width: 1.5px; fill: steelblue; stroke: rgb(53, 94, 149);"/><text text-anchor="middle" dy="-15">nav</text></g><g class="node text indent" style="opacity: 1; font-size: 11px; font-weight: bold;" transform="translate(68.75,320)"><circle r="10" style="stroke-width: 1.5px; fill: rgb(255, 204, 0); stroke: orange;"/><text text-anchor="middle" dy="-15">#text</text></g><g class="node element" style="opacity: 1; font-size: 11px; font-weight: bold;" transform="translate(118.75,320)"><circle r="10" style="stroke-width: 1.5px; fill: steelblue; stroke: rgb(53, 94, 149);"/><text text-anchor="middle" dy="-15">ul</text></g><g class="node text indent" style="opacity: 1; font-size: 11px; font-weight: bold;" transform="translate(118.75,400)"><circle r="10" style="stroke-width: 1.5px; fill: rgb(255, 204, 0); stroke: orange;"/><text text-anchor="middle" dy="-15">#text</text></g><g class="node element" style="opacity: 1; font-size: 11px; font-weight: bold;" transform="translate(168.75,400)"><circle r="10" style="stroke-width: 1.5px; fill: steelblue; stroke: rgb(53, 94, 149);"/><text text-anchor="middle" dy="-15">li</text></g><g class="node element" style="opacity: 1; font-size: 11px; font-weight: bold;" transform="translate(168.75,480)"><circle r="10" style="stroke-width: 1.5px; fill: steelblue; stroke: rgb(53, 94, 149);"/><text text-anchor="middle" dy="-15">a</text></g><g class="node text" style="opacity: 1; font-size: 11px; font-weight: bold;" transform="translate(168.75,560)"><circle r="10" style="stroke-width: 1.5px; fill: rgb(80, 180, 86); stroke: rgb(13, 149, 44);"/><text text-anchor="middle" dy="-15">#text</text></g><g class="node text indent" style="opacity: 1; font-size: 11px; font-weight: bold;" transform="translate(218.75,400)"><circle r="10" style="stroke-width: 1.5px; fill: rgb(255, 204, 0); stroke: orange;"/><text text-anchor="middle" dy="-15">#text</text></g><g class="node text indent" style="opacity: 1; font-size: 11px; font-weight: bold;" transform="translate(168.75,320)"><circle r="10" style="stroke-width: 1.5px; fill: rgb(255, 204, 0); stroke: orange;"/><text text-anchor="middle" dy="-15">#text</text></g><g class="node element" style="opacity: 1; font-size: 11px; font-weight: bold;" transform="translate(918.75,240)"><circle r="10" style="stroke-width: 1.5px; fill: steelblue; stroke: rgb(53, 94, 149);"/><text text-anchor="middle" dy="-15">form#formRegistro</text></g><g class="node text indent" style="opacity: 1; font-size: 11px; font-weight: bold;" transform="translate(18.75,400)"><circle r="10" style="stroke-width: 1.5px; fill: rgb(255, 204, 0); stroke: orange;"/><text text-anchor="middle" dy="-15">#text</text></g><g class="node element" style="opacity: 1; font-size: 11px; font-weight: bold;" transform="translate(68.75,400)"><circle r="10" style="stroke-width: 1.5px; fill: steelblue; stroke: rgb(53, 94, 149);"/><text text-anchor="middle" dy="-15">li</text></g><g class="node element" style="opacity: 1; font-size: 11px; font-weight: bold;" transform="translate(68.75,480)"><circle r="10" style="stroke-width: 1.5px; fill: steelblue; stroke: rgb(53, 94, 149);"/><text text-anchor="middle" dy="-15">a</text></g><g class="node text" style="opacity: 1; font-size: 11px; font-weight: bold;" transform="translate(68.75,560)"><circle r="10" style="stroke-width: 1.5px; fill: rgb(80, 180, 86); stroke: rgb(13, 149, 44);"/><text text-anchor="middle" dy="-15">#text</text></g><g class="node text indent" style="opacity: 1; font-size: 11px; font-weight: bold;" transform="translate(768.75,320)"><circle r="10" style="stroke-width: 1.5px; fill: rgb(255, 204, 0); stroke: orange;"/><text text-anchor="middle" dy="-15">#text</text></g><g class="node text indent" style="opacity: 1; font-size: 11px; font-weight: bold;" transform="translate(1168.75,320)"><circle r="10" style="stroke-width: 1.5px; fill: rgb(255, 204, 0); stroke: orange;"/><text text-anchor="middle" dy="-15">#text</text></g><g class="node text indent" style="opacity: 1; font-size: 11px; font-weight: bold;" transform="translate(868.75,240)"><circle r="10" style="stroke-width: 1.5px; fill: rgb(255, 204, 0); stroke: orange;"/><text text-anchor="middle" dy="-15">#text</text></g><g class="node text indent" style="opacity: 1; font-size: 11px; font-weight: bold;" transform="translate(-806.25,160)"><circle r="10" style="stroke-width: 1.5px; fill: rgb(255, 204, 0); stroke: orange;"/><text text-anchor="middle" dy="-15">#text</text></g><g class="node element" style="opacity: 1; font-size: 11px; font-weight: bold;" transform="translate(1268.75,320)"><circle r="10" style="stroke-width: 1.5px; fill: steelblue; stroke: rgb(53, 94, 149);"/><text text-anchor="middle" dy="-15">label</text></g><g class="node text indent" style="opacity: 1; font-size: 11px; font-weight: bold;" transform="translate(1318.75,400)"><circle r="10" style="stroke-width: 1.5px; fill: rgb(255, 204, 0); stroke: orange;"/><text text-anchor="middle" dy="-15">#text</text></g><g class="node text indent" style="opacity: 1; font-size: 11px; font-weight: bold;" transform="translate(1393.75,320)"><circle r="10" style="stroke-width: 1.5px; fill: rgb(255, 204, 0); stroke: orange;"/><text text-anchor="middle" dy="-15">#text</text></g><g class="node text indent" style="opacity: 1; font-size: 11px; font-weight: bold;" transform="translate(1568.75,320)"><circle r="10" style="stroke-width: 1.5px; fill: rgb(255, 204, 0); stroke: orange;"/><text text-anchor="middle" dy="-15">#text</text></g><g class="node element" style="opacity: 1; font-size: 11px; font-weight: bold;" transform="translate(1068.75,160)"><circle r="10" style="stroke-width: 1.5px; fill: steelblue; stroke: rgb(53, 94, 149);"/><text text-anchor="middle" dy="-15">script</text></g><g class="node text indent" style="opacity: 1; font-size: 11px; font-weight: bold;" transform="translate(1118.75,160)"><circle r="10" style="stroke-width: 1.5px; fill: rgb(255, 204, 0); stroke: orange;"/><text text-anchor="middle" dy="-15">#text</text></g><g class="node element" style="opacity: 1; font-size: 11px; font-weight: bold;" transform="translate(-756.25,160)"><circle r="10" style="stroke-width: 1.5px; fill: steelblue; stroke: rgb(53, 94, 149);"/><text text-anchor="middle" dy="-15">meta</text></g><g class="node text indent" style="opacity: 1; font-size: 11px; font-weight: bold;" transform="translate(-606.25,160)"><circle r="10" style="stroke-width: 1.5px; fill: rgb(255, 204, 0); stroke: orange;"/><text text-anchor="middle" dy="-15">#text</text></g><g class="node comment" style="opacity: 1; font-size: 11px; font-weight: bold;" transform="translate(-556.25,160)"><circle r="10" style="stroke-width: 1.5px; fill: rgb(154, 80, 150); stroke: purple;"/><text text-anchor="middle" dy="-15">&lt;!-- --&gt;</text></g><g class="node comment" style="opacity: 1; font-size: 11px; font-weight: bold;" transform="translate(-356.25,160)"><circle r="10" style="stroke-width: 1.5px; fill: rgb(154, 80, 150); stroke: purple;"/><text text-anchor="middle" dy="-15">&lt;!-- --&gt;</text></g><g class="node text indent" style="opacity: 1; font-size: 11px; font-weight: bold;" transform="translate(-306.25,160)"><circle r="10" style="stroke-width: 1.5px; fill: rgb(255, 204, 0); stroke: orange;"/><text text-anchor="middle" dy="-15">#text</text></g><g class="node text indent" style="opacity: 1; font-size: 11px; font-weight: bold;" transform="translate(-106.25,160)"><circle r="10" style="stroke-width: 1.5px; fill: rgb(255, 204, 0); stroke: orange;"/><text text-anchor="middle" dy="-15">#text</text></g><g class="node comment" style="opacity: 1; font-size: 11px; font-weight: bold;" transform="translate(-56.25,160)"><circle r="10" style="stroke-width: 1.5px; fill: rgb(154, 80, 150); stroke: purple;"/><text text-anchor="middle" dy="-15">&lt;!-- --&gt;</text></g><g class="node comment" style="opacity: 1; font-size: 11px; font-weight: bold;" transform="translate(506.25,160)"><circle r="10" style="stroke-width: 1.5px; fill: rgb(154, 80, 150); stroke: purple;"/><text text-anchor="middle" dy="-15">&lt;!-- --&gt;</text></g><g class="node text indent" style="opacity: 1; font-size: 11px; font-weight: bold;" transform="translate(737.5,160)"><circle r="10" style="stroke-width: 1.5px; fill: rgb(255, 204, 0); stroke: orange;"/><text text-anchor="middle" dy="-15">#text</text></g><g class="node text indent" style="opacity: 1; font-size: 11px; font-weight: bold;" transform="translate(268.75,320)"><circle r="10" style="stroke-width: 1.5px; fill: rgb(255, 204, 0); stroke: orange;"/><text text-anchor="middle" dy="-15">#text</text></g><g class="node element" style="opacity: 1; font-size: 11px; font-weight: bold;" transform="translate(318.75,320)"><circle r="10" style="stroke-width: 1.5px; fill: steelblue; stroke: rgb(53, 94, 149);"/><text text-anchor="middle" dy="-15">h2</text></g><g class="node text" style="opacity: 1; font-size: 11px; font-weight: bold;" transform="translate(318.75,400)"><circle r="10" style="stroke-width: 1.5px; fill: rgb(80, 180, 86); stroke: rgb(13, 149, 44);"/><text text-anchor="middle" dy="-15">#text</text></g><g class="node text indent" style="opacity: 1; font-size: 11px; font-weight: bold;" transform="translate(393.75,320)"><circle r="10" style="stroke-width: 1.5px; fill: rgb(255, 204, 0); stroke: orange;"/><text text-anchor="middle" dy="-15">#text</text></g><g class="node element" style="opacity: 1; font-size: 11px; font-weight: bold;" transform="translate(468.75,320)"><circle r="10" style="stroke-width: 1.5px; fill: steelblue; stroke: rgb(53, 94, 149);"/><text text-anchor="middle" dy="-15">label</text></g><g class="node text" style="opacity: 1; font-size: 11px; font-weight: bold;" transform="translate(418.75,400)"><circle r="10" style="stroke-width: 1.5px; fill: rgb(80, 180, 86); stroke: rgb(13, 149, 44);"/><text text-anchor="middle" dy="-15">#text</text></g><g class="node element" style="opacity: 1; font-size: 11px; font-weight: bold;" transform="translate(468.75,400)"><circle r="10" style="stroke-width: 1.5px; fill: steelblue; stroke: rgb(53, 94, 149);"/><text text-anchor="middle" dy="-15">input#nombre</text></g><g class="node text indent" style="opacity: 1; font-size: 11px; font-weight: bold;" transform="translate(518.75,400)"><circle r="10" style="stroke-width: 1.5px; fill: rgb(255, 204, 0); stroke: orange;"/><text text-anchor="middle" dy="-15">#text</text></g><g class="node text indent" style="opacity: 1; font-size: 11px; font-weight: bold;" transform="translate(568.75,320)"><circle r="10" style="stroke-width: 1.5px; fill: rgb(255, 204, 0); stroke: orange;"/><text text-anchor="middle" dy="-15">#text</text></g><g class="node element" style="opacity: 1; font-size: 11px; font-weight: bold;" transform="translate(668.75,320)"><circle r="10" style="stroke-width: 1.5px; fill: steelblue; stroke: rgb(53, 94, 149);"/><text text-anchor="middle" dy="-15">label</text></g><g class="node text" style="opacity: 1; font-size: 11px; font-weight: bold;" transform="translate(618.75,400)"><circle r="10" style="stroke-width: 1.5px; fill: rgb(80, 180, 86); stroke: rgb(13, 149, 44);"/><text text-anchor="middle" dy="-15">#text</text></g><g class="node element" style="opacity: 1; font-size: 11px; font-weight: bold;" transform="translate(668.75,400)"><circle r="10" style="stroke-width: 1.5px; fill: steelblue; stroke: rgb(53, 94, 149);"/><text text-anchor="middle" dy="-15">input#correo</text></g><g class="node text indent" style="opacity: 1; font-size: 11px; font-weight: bold;" transform="translate(718.75,400)"><circle r="10" style="stroke-width: 1.5px; fill: rgb(255, 204, 0); stroke: orange;"/><text text-anchor="middle" dy="-15">#text</text></g><g class="node element" style="opacity: 1; font-size: 11px; font-weight: bold;" transform="translate(868.75,320)"><circle r="10" style="stroke-width: 1.5px; fill: steelblue; stroke: rgb(53, 94, 149);"/><text text-anchor="middle" dy="-15">label</text></g><g class="node text" style="opacity: 1; font-size: 11px; font-weight: bold;" transform="translate(818.75,400)"><circle r="10" style="stroke-width: 1.5px; fill: rgb(80, 180, 86); stroke: rgb(13, 149, 44);"/><text text-anchor="middle" dy="-15">#text</text></g><g class="node element" style="opacity: 1; font-size: 11px; font-weight: bold;" transform="translate(868.75,400)"><circle r="10" style="stroke-width: 1.5px; fill: steelblue; stroke: rgb(53, 94, 149);"/><text text-anchor="middle" dy="-15">input#telefono</text></g><g class="node text indent" style="opacity: 1; font-size: 11px; font-weight: bold;" transform="translate(918.75,400)"><circle r="10" style="stroke-width: 1.5px; fill: rgb(255, 204, 0); stroke: orange;"/><text text-anchor="middle" dy="-15">#text</text></g><g class="node text indent" style="opacity: 1; font-size: 11px; font-weight: bold;" transform="translate(968.75,320)"><circle r="10" style="stroke-width: 1.5px; fill: rgb(255, 204, 0); stroke: orange;"/><text text-anchor="middle" dy="-15">#text</text></g><g class="node element" style="opacity: 1; font-size: 11px; font-weight: bold;" transform="translate(1068.75,320)"><circle r="10" style="stroke-width: 1.5px; fill: steelblue; stroke: rgb(53, 94, 149);"/><text text-anchor="middle" dy="-15">label</text></g><g class="node text" style="opacity: 1; font-size: 11px; font-weight: bold;" transform="translate(1018.75,400)"><circle r="10" style="stroke-width: 1.5px; fill: rgb(80, 180, 86); stroke: rgb(13, 149, 44);"/><text text-anchor="middle" dy="-15">#text</text></g><g class="node element" style="opacity: 1; font-size: 11px; font-weight: bold;" transform="translate(1068.75,400)"><circle r="10" style="stroke-width: 1.5px; fill: steelblue; stroke: rgb(53, 94, 149);"/><text text-anchor="middle" dy="-15">input#documento</text></g><g class="node text indent" style="opacity: 1; font-size: 11px; font-weight: bold;" transform="translate(1118.75,400)"><circle r="10" style="stroke-width: 1.5px; fill: rgb(255, 204, 0); stroke: orange;"/><text text-anchor="middle" dy="-15">#text</text></g><g class="node text" style="opacity: 1; font-size: 11px; font-weight: bold;" transform="translate(1218.75,400)"><circle r="10" style="stroke-width: 1.5px; fill: rgb(80, 180, 86); stroke: rgb(13, 149, 44);"/><text text-anchor="middle" dy="-15">#text</text></g><g class="node element" style="opacity: 1; font-size: 11px; font-weight: bold;" transform="translate(1268.75,400)"><circle r="10" style="stroke-width: 1.5px; fill: steelblue; stroke: rgb(53, 94, 149);"/><text text-anchor="middle" dy="-15">input#contrasena</text></g><g class="node element" style="opacity: 1; font-size: 11px; font-weight: bold;" transform="translate(1518.75,320)"><circle r="10" style="stroke-width: 1.5px; fill: steelblue; stroke: rgb(53, 94, 149);"/><text text-anchor="middle" dy="-15">div.botones</text></g><g class="node text indent" style="opacity: 1; font-size: 11px; font-weight: bold;" transform="translate(1418.75,400)"><circle r="10" style="stroke-width: 1.5px; fill: rgb(255, 204, 0); stroke: orange;"/><text text-anchor="middle" dy="-15">#text</text></g><g class="node element" style="opacity: 1; font-size: 11px; font-weight: bold;" transform="translate(1468.75,400)"><circle r="10" style="stroke-width: 1.5px; fill: steelblue; stroke: rgb(53, 94, 149);"/><text text-anchor="middle" dy="-15">button.btn.primario</text></g><g class="node text" style="opacity: 1; font-size: 11px; font-weight: bold;" transform="translate(1468.75,480)"><circle r="10" style="stroke-width: 1.5px; fill: rgb(80, 180, 86); stroke: rgb(13, 149, 44);"/><text text-anchor="middle" dy="-15">#text</text></g><g class="node text indent" style="opacity: 1; font-size: 11px; font-weight: bold;" transform="translate(1518.75,400)"><circle r="10" style="stroke-width: 1.5px; fill: rgb(255, 204, 0); stroke: orange;"/><text text-anchor="middle" dy="-15">#text</text></g><g class="node element" style="opacity: 1; font-size: 11px; font-weight: bold;" transform="translate(1568.75,400)"><circle r="10" style="stroke-width: 1.5px; fill: steelblue; stroke: rgb(53, 94, 149);"/><text text-anchor="middle" dy="-15">button.btn.secundario</text></g><g class="node text" style="opacity: 1; font-size: 11px; font-weight: bold;" transform="translate(1568.75,480)"><circle r="10" style="stroke-width: 1.5px; fill: rgb(80, 180, 86); stroke: rgb(13, 149, 44);"/><text text-anchor="middle" dy="-15">#text</text></g><g class="node text indent" style="opacity: 1; font-size: 11px; font-weight: bold;" transform="translate(1618.75,400)"><circle r="10" style="stroke-width: 1.5px; fill: rgb(255, 204, 0); stroke: orange;"/><text text-anchor="middle" dy="-15">#text</text></g><g class="node element" style="opacity: 1; font-size: 11px; font-weight: bold;" transform="translate(1018.75,240)"><circle r="10" style="stroke-width: 1.5px; fill: steelblue; stroke: rgb(53, 94, 149);"/><text text-anchor="middle" dy="-15">p#mensaje</text></g><g class="node text indent" style="opacity: 1; font-size: 11px; font-weight: bold;" transform="translate(1068.75,240)"><circle r="10" style="stroke-width: 1.5px; fill: rgb(255, 204, 0); stroke: orange;"/><text text-anchor="middle" dy="-15">#text</text></g></g></svg>