<svg xmlns="http://www.w3.org/2000/svg" width="2970" height="605"><g transform="translate(751.25,30)"><path class="link" d="M0,0C0,40 -531.25,40 -531.25,80" style="opacity: 1; fill: none; stroke: rgb(204, 204, 204);"/><path class="link" d="M0,0C0,40 0,40 0,80" style="opacity: 1; fill: none; stroke: rgb(204, 204, 204);"/><path class="link" d="M0,0C0,40 531.25,40 531.25,80" style="opacity: 1; fill: none; stroke: rgb(204, 204, 204);"/><path class="link" d="M-531.25,80C-531.25,120 -631.25,120 -631.25,160" style="opacity: 1; fill: none; stroke: rgb(204, 204, 204);"/><path class="link" d="M-531.25,80C-531.25,120 -581.25,120 -581.25,160" style="opacity: 1; fill: none; stroke: rgb(204, 204, 204);"/><path class="link" d="M-531.25,80C-531.25,120 -331.25,120 -331.25,160" style="opacity: 1; fill: none; stroke: rgb(204, 204, 204);"/><path class="link" d="M-581.25,160C-581.25,200 -581.25,200 -581.25,240" style="opacity: 1; fill: none; stroke: rgb(204, 204, 204);"/><path class="link" d="M531.25,80C531.25,120 -231.25,120 -231.25,160" style="opacity: 1; fill: none; stroke: rgb(204, 204, 204);"/><path class="link" d="M531.25,80C531.25,120 -181.25,120 -181.25,160" style="opacity: 1; fill: none; stroke: rgb(204, 204, 204);"/><path class="link" d="M531.25,80C531.25,120 1143.75,120 1143.75,160" style="opacity: 1; fill: none; stroke: rgb(204, 204, 204);"/><path class="link" d="M531.25,80C531.25,120 1193.75,120 1193.75,160" style="opacity: 1; fill: none; stroke: rgb(204, 204, 204);"/><path class="link" d="M-181.25,160C-181.25,200 -56.25,200 -56.25,240" style="opacity: 1; fill: none; stroke: rgb(204, 204, 204);"/><path class="link" d="M1143.75,160C1143.75,200 1143.75,200 1143.75,240" style="opacity: 1; fill: none; stroke: rgb(204, 204, 204);"/><path class="link" d="M-531.25,80C-531.25,120 -531.25,120 -531.25,160" style="opacity: 1; fill: none; stroke: rgb(204, 204, 204);"/><path class="link" d="M-531.25,80C-531.25,120 -481.25,120 -481.25,160" style="opacity: 1; fill: none; stroke: rgb(204, 204, 204);"/><path class="link" d="M-531.25,80C-531.25,120 -431.25,120 -431.25,160" style="opacity: 1; fill: none; stroke: rgb(204, 204, 204);"/><path class="link" d="M-531.25,80C-531.25,120 -381.25,120 -381.25,160" style="opacity: 1; fill: none; stroke: rgb(204, 204, 204);"/><path class="link" d="M-181.25,160C-181.25,200 -306.25,200 -306.25,240" style="opacity: 1; fill: none; stroke: rgb(204, 204, 204);"/><path class="link" d="M-181.25,160C-181.25,200 -256.25,200 -256.25,240" style="opacity: 1; fill: none; stroke: rgb(204, 204, 204);"/><path class="link" d="M-181.25,160C-181.25,200 -181.25,200 -181.25,240" style="opacity: 1; fill: none; stroke: rgb(204, 204, 204);"/><path class="link" d="M-181.25,160C-181.25,200 -106.25,200 -106.25,240" style="opacity: 1; fill: none; stroke: rgb(204, 204, 204);"/><path class="link" d="M-256.25,240C-256.25,280 -256.25,280 -256.25,320" style="opacity: 1; fill: none; stroke: rgb(204, 204, 204);"/><path class="link" d="M-106.25,240C-106.25,280 -156.25,280 -156.25,320" style="opacity: 1; fill: none; stroke: rgb(204, 204, 204);"/><path class="link" d="M-106.25,240C-106.25,280 -106.25,280 -106.25,320" style="opacity: 1; fill: none; stroke: rgb(204, 204, 204);"/><path class="link" d="M-106.25,240C-106.25,280 -56.25,280 -56.25,320" style="opacity: 1; fill: none; stroke: rgb(204, 204, 204);"/><path class="link" d="M-106.25,320C-106.25,360 -106.25,360 -106.25,400" style="opacity: 1; fill: none; stroke: rgb(204, 204, 204);"/><path class="link" d="M-106.25,320C-106.25,360 -56.25,360 -56.25,400" style="opacity: 1; fill: none; stroke: rgb(204, 204, 204);"/><path class="link" d="M-106.25,320C-106.25,360 -6.25,360 -6.25,400" style="opacity: 1; fill: none; stroke: rgb(204, 204, 204);"/><path class="link" d="M-56.25,400C-56.25,440 -56.25,440 -56.25,480" style="opacity: 1; fill: none; stroke: rgb(204, 204, 204);"/><path class="link" d="M-56.25,480C-56.25,520 -56.25,520 -56.25,560" style="opacity: 1; fill: none; stroke: rgb(204, 204, 204);"/><path class="link" d="M1143.75,160C1143.75,200 1093.75,200 1093.75,240" style="opacity: 1; fill: none; stroke: rgb(204, 204, 204);"/><path class="link" d="M-106.25,320C-106.25,360 -206.25,360 -206.25,400" style="opacity: 1; fill: none; stroke: rgb(204, 204, 204);"/><path class="link" d="M-106.25,320C-106.25,360 -156.25,360 -156.25,400" style="opacity: 1; fill: none; stroke: rgb(204, 204, 204);"/><path class="link" d="M-156.25,400C-156.25,440 -156.25,440 -156.25,480" style="opacity: 1; fill: none; stroke: rgb(204, 204, 204);"/><path class="link" d="M-156.25,480C-156.25,520 -156.25,520 -156.25,560" style="opacity: 1; fill: none; stroke: rgb(204, 204, 204);"/><path class="link" d="M1093.75,240C1093.75,280 1043.75,280 1043.75,320" style="opacity: 1; fill: none; stroke: rgb(204, 204, 204);"/><path class="link" d="M1093.75,240C1093.75,280 1743.75,280 1743.75,320" style="opacity: 1; fill: none; stroke: rgb(204, 204, 204);"/><path class="link" d="M1143.75,160C1143.75,200 1043.75,200 1043.75,240" style="opacity: 1; fill: none; stroke: rgb(204, 204, 204);"/><path class="link" d="M-531.25,80C-531.25,120 -731.25,120 -731.25,160" style="opacity: 1; fill: none; stroke: rgb(204, 204, 204);"/><path class="link" d="M531.25,80C531.25,120 1243.75,120 1243.75,160" style="opacity: 1; fill: none; stroke: rgb(204, 204, 204);"/><path class="link" d="M531.25,80C531.25,120 1293.75,120 1293.75,160" style="opacity: 1; fill: none; stroke: rgb(204, 204, 204);"/><path class="link" d="M1093.75,240C1093.75,280 1893.75,280 1893.75,320" style="opacity: 1; fill: none; stroke: rgb(204, 204, 204);"/><path class="link" d="M1093.75,240C1093.75,280 2043.75,280 2043.75,320" style="opacity: 1; fill: none; stroke: rgb(204, 204, 204);"/><path class="link" d="M1093.75,240C1093.75,280 2143.75,280 2143.75,320" style="opacity: 1; fill: none; stroke: rgb(204, 204, 204);"/><path class="link" d="M-531.25,80C-531.25,120 -681.25,120 -681.25,160" style="opacity: 1; fill: none; stroke: rgb(204, 204, 204);"/><path class="link" d="M531.25,80C531.25,120 481.25,120 481.25,160" style="opacity: 1; fill: none; stroke: rgb(204, 204, 204);"/><path class="link" d="M1143.75,160C1143.75,200 1193.75,200 1193.75,240" style="opacity: 1; fill: none; stroke: rgb(204, 204, 204);"/><path class="link" d="M1143.75,160C1143.75,200 1243.75,200 1243.75,240" style="opacity: 1; fill: none; stroke: rgb(204, 204, 204);"/><path class="link" d="M1093.75,240C1093.75,280 43.75,280 43.75,320" style="opacity: 1; fill: none; stroke: rgb(204, 204, 204);"/><path class="link" d="M1093.75,240C1093.75,280 93.75,280 93.75,320" style="opacity: 1; fill: none; stroke: rgb(204, 204, 204);"/><path class="link" d="M1093.75,240C1093.75,280 243.75,280 243.75,320" style="opacity: 1; fill: none; stroke: rgb(204, 204, 204);"/><path class="link" d="M1093.75,240C1093.75,280 293.75,280 293.75,320" style="opacity: 1; fill: none; stroke: rgb(204, 204, 204);"/><path class="link" d="M1093.75,240C1093.75,280 543.75,280 543.75,320" style="opacity: 1; fill: none; stroke: rgb(204, 204, 204);"/><path class="link" d="M1093.75,240C1093.75,280 693.75,280 693.75,320" style="opacity: 1; fill: none; stroke: rgb(204, 204, 204);"/><path class="link" d="M1093.75,240C1093.75,280 1093.75,280 1093.75,320" style="opacity: 1; fill: none; stroke: rgb(204, 204, 204);"/><path class="link" d="M1093.75,240C1093.75,280 1443.75,280 1443.75,320" style="opacity: 1; fill: none; stroke: rgb(204, 204, 204);"/><path class="link" d="M1093.75,240C1093.75,280 1593.75,280 1593.75,320" style="opacity: 1; fill: none; stroke: rgb(204, 204, 204);"/><path class="link" d="M1093.75,240C1093.75,280 2093.75,280 2093.75,320" style="opacity: 1; fill: none; stroke: rgb(204, 204, 204);"/><path class="link" d="M93.75,320C93.75,360 93.75,360 93.75,400" style="opacity: 1; fill: none; stroke: rgb(204, 204, 204);"/><path class="link" d="M293.75,320C293.75,360 293.75,360 293.75,400" style="opacity: 1; fill: none; stroke: rgb(204, 204, 204);"/><path class="link" d="M693.75,320C693.75,360 693.75,360 693.75,400" style="opacity: 1; fill: none; stroke: rgb(204, 204, 204);"/><path class="link" d="M1093.75,320C1093.75,360 1093.75,360 1093.75,400" style="opacity: 1; fill: none; stroke: rgb(204, 204, 204);"/><path class="link" d="M1593.75,320C1593.75,360 1393.75,360 1393.75,400" style="opacity: 1; fill: none; stroke: rgb(204, 204, 204);"/><path class="link" d="M1593.75,320C1593.75,360 1793.75,360 1793.75,400" style="opacity: 1; fill: none; stroke: rgb(204, 204, 204);"/><path class="link" d="M1893.75,320C1893.75,360 1893.75,360 1893.75,400" style="opacity: 1; fill: none; stroke: rgb(204, 204, 204);"/><path class="link" d="M2093.75,320C2093.75,360 1993.75,360 1993.75,400" style="opacity: 1; fill: none; stroke: rgb(204, 204, 204);"/><path class="link" d="M2093.75,320C2093.75,360 2043.75,360 2043.75,400" style="opacity: 1; fill: none; stroke: rgb(204, 204, 204);"/><path class="link" d="M2093.75,320C2093.75,360 2093.75,360 2093.75,400" style="opacity: 1; fill: none; stroke: rgb(204, 204, 204);"/><path class="link" d="M2093.75,320C2093.75,360 2143.75,360 2143.75,400" style="opacity: 1; fill: none; stroke: rgb(204, 204, 204);"/><path class="link" d="M2093.75,320C2093.75,360 2193.75,360 2193.75,400" style="opacity: 1; fill: none; stroke: rgb(204, 204, 204);"/><path class="link" d="M2043.75,400C2043.75,440 2043.75,440 2043.75,480" style="opacity: 1; fill: none; stroke: rgb(204, 204, 204);"/><path class="link" d="M2143.75,400C2143.75,440 2143.75,440 2143.75,480" style="opacity: 1; fill: none; stroke: rgb(204, 204, 204);"/><path class="link" d="M1093.75,240C1093.75,280 143.75,280 143.75,320" style="opacity: 1; fill: none; stroke: rgb(204, 204, 204);"/><path class="link" d="M1093.75,240C1093.75,280 193.75,280 193.75,320" style="opacity: 1; fill: none; stroke: rgb(204, 204, 204);"/><path class="link" d="M1093.75,240C1093.75,280 343.75,280 343.75,320" style="opacity: 1; fill: none; stroke: rgb(204, 204, 204);"/><path class="link" d="M1093.75,240C1093.75,280 393.75,280 393.75,320" style="opacity: 1; fill: none; stroke: rgb(204, 204, 204);"/><path class="link" d="M1093.75,240C1093.75,280 443.75,280 443.75,320" style="opacity: 1; fill: none; stroke: rgb(204, 204, 204);"/><path class="link" d="M1093.75,240C1093.75,280 493.75,280 493.75,320" style="opacity: 1; fill: none; stroke: rgb(204, 204, 204);"/><path class="link" d="M1093.75,240C1093.75,280 593.75,280 593.75,320" style="opacity: 1; fill: none; stroke: rgb(204, 204, 204);"/><path class="link" d="M1093.75,240C1093.75,280 643.75,280 643.75,320" style="opacity: 1; fill: none; stroke: rgb(204, 204, 204);"/><path class="link" d="M1093.75,240C1093.75,280 743.75,280 743.75,320" style="opacity: 1; fill: none; stroke: rgb(204, 204, 204);"/><path class="link" d="M1093.75,240C1093.75,280 793.75,280 793.75,320" style="opacity: 1; fill: none; stroke: rgb(204, 204, 204);"/><path class="link" d="M1093.75,240C1093.75,280 843.75,280 843.75,320" style="opacity: 1; fill: none; stroke: rgb(204, 204, 204);"/><path class="link" d="M1093.75,240C1093.75,280 893.75,280 893.75,320" style="opacity: 1; fill: none; stroke: rgb(204, 204, 204);"/><path class="link" d="M1093.75,240C1093.75,280 943.75,280 943.75,320" style="opacity: 1; fill: none; stroke: rgb(204, 204, 204);"/><path class="link" d="M1093.75,240C1093.75,280 993.75,280 993.75,320" style="opacity: 1; fill: none; stroke: rgb(204, 204, 204);"/><path class="link" d="M1093.75,240C1093.75,280 1143.75,280 1143.75,320" style="opacity: 1; fill: none; stroke: rgb(204, 204, 204);"/><path class="link" d="M1093.75,240C1093.75,280 1193.75,280 1193.75,320" style="opacity: 1; fill: none; stroke: rgb(204, 204, 204);"/><path class="link" d="M1093.75,240C1093.75,280 1243.75,280 1243.75,320" style="opacity: 1; fill: none; stroke: rgb(204, 204, 204);"/><path class="link" d="M1093.75,240C1093.75,280 1293.75,280 1293.75,320" style="opacity: 1; fill: none; stroke: rgb(204, 204, 204);"/><path class="link" d="M1093.75,240C1093.75,280 1943.75,280 1943.75,320" style="opacity: 1; fill: none; stroke: rgb(204, 204, 204);"/><path class="link" d="M1093.75,240C1093.75,280 1993.75,280 1993.75,320" style="opacity: 1; fill: none; stroke: rgb(204, 204, 204);"/><path class="link" d="M493.75,320C493.75,360 493.75,360 493.75,400" style="opacity: 1; fill: none; stroke: rgb(204, 204, 204);"/><path class="link" d="M893.75,320C893.75,360 893.75,360 893.75,400" style="opacity: 1; fill: none; stroke: rgb(204, 204, 204);"/><path class="link" d="M1293.75,320C1293.75,360 1293.75,360 1293.75,400" style="opacity: 1; fill: none; stroke: rgb(204, 204, 204);"/><path class="link" d="M1593.75,320C1593.75,360 1443.75,360 1443.75,400" style="opacity: 1; fill: none; stroke: rgb(204, 204, 204);"/><path class="link" d="M1593.75,320C1593.75,360 1493.75,360 1493.75,400" style="opacity: 1; fill: none; stroke: rgb(204, 204, 204);"/><path class="link" d="M1593.75,320C1593.75,360 1543.75,360 1543.75,400" style="opacity: 1; fill: none; stroke: rgb(204, 204, 204);"/><path class="link" d="M1593.75,320C1593.75,360 1593.75,360 1593.75,400" style="opacity: 1; fill: none; stroke: rgb(204, 204, 204);"/><path class="link" d="M1593.75,320C1593.75,360 1643.75,360 1643.75,400" style="opacity: 1; fill: none; stroke: rgb(204, 204, 204);"/><path class="link" d="M1593.75,320C1593.75,360 1693.75,360 1693.75,400" style="opacity: 1; fill: none; stroke: rgb(204, 204, 204);"/><path class="link" d="M1593.75,320C1593.75,360 1743.75,360 1743.75,400" style="opacity: 1; fill: none; stroke: rgb(204, 204, 204);"/><path class="link" d="M1443.75,400C1443.75,440 1443.75,440 1443.75,480" style="opacity: 1; fill: none; stroke: rgb(204, 204, 204);"/><path class="link" d="M1543.75,400C1543.75,440 1543.75,440 1543.75,480" style="opacity: 1; fill: none; stroke: rgb(204, 204, 204);"/><path class="link" d="M1643.75,400C1643.75,440 1643.75,440 1643.75,480" style="opacity: 1; fill: none; stroke: rgb(204, 204, 204);"/><path class="link" d="M1743.75,400C1743.75,440 1743.75,440 1743.75,480" style="opacity: 1; fill: none; stroke: rgb(204, 204, 204);"/><g class="node element" style="opacity: 1; font-size: 11px; font-weight: bold;" transform="translate(0,0)"><circle r="10" style="stroke-width: 1.5px; fill: steelblue; stroke: rgb(53, 94, 149);"/><text text-anchor="middle" dy="-15">html</text></g><g class="node element" style="opacity: 1; font-size: 11px; font-weight: bold;" transform="translate(-531.25,80)"><circle r="10" style="stroke-width: 1.5px; fill: steelblue; stroke: rgb(53, 94, 149);"/><text text-anchor="middle" dy="-15">head</text></g><g class="node text indent" style="opacity: 1; font-size: 11px; font-weight: bold;" transform="translate(-631.25,160)"><circle r="10" style="stroke-width: 1.5px; fill: rgb(255, 204, 0); stroke: orange;"/><text text-anchor="middle" dy="-15">#text</text></g><g class="node element" style="opacity: 1; font-size: 11px; font-weight: bold;" transform="translate(-581.25,160)"><circle r="10" style="stroke-width: 1.5px; fill: steelblue; stroke: rgb(53, 94, 149);"/><text text-anchor="middle" dy="-15">title</text></g><g class="node text" style="opacity: 1; font-size: 11px; font-weight: bold;" transform="translate(-581.25,240)"><circle r="10" style="stroke-width: 1.5px; fill: rgb(80, 180, 86); stroke: rgb(13, 149, 44);"/><text text-anchor="middle" dy="-15">#text</text></g><g class="node text indent" style="opacity: 1; font-size: 11px; font-weight: bold;" transform="translate(-331.25,160)"><circle r="10" style="stroke-width: 1.5px; fill: rgb(255, 204, 0); stroke: orange;"/><text text-anchor="middle" dy="-15">#text</text></g><g class="node text indent" style="opacity: 1; font-size: 11px; font-weight: bold;" transform="translate(0,80)"><circle r="10" style="stroke-width: 1.5px; fill: rgb(255, 204, 0); stroke: orange;"/><text text-anchor="middle" dy="-15">#text</text></g><g class="node element" style="opacity: 1; font-size: 11px; font-weight: bold;" transform="translate(531.25,80)"><circle r="10" style="stroke-width: 1.5px; fill: steelblue; stroke: rgb(53, 94, 149);"/><text text-anchor="middle" dy="-15">body</text></g><g class="node text indent" style="opacity: 1; font-size: 11px; font-weight: bold;" transform="translate(-231.25,160)"><circle r="10" style="stroke-width: 1.5px; fill: rgb(255, 204, 0); stroke: orange;"/><text text-anchor="middle" dy="-15">#text</text></g><g class="node element" style="opacity: 1; font-size: 11px; font-weight: bold;" transform="translate(-181.25,160)"><circle r="10" style="stroke-width: 1.5px; fill: steelblue; stroke: rgb(53, 94, 149);"/><text text-anchor="middle" dy="-15">header</text></g><g class="node text" style="opacity: 1; font-size: 11px; font-weight: bold;" transform="translate(-56.25,240)"><circle r="10" style="stroke-width: 1.5px; fill: rgb(80, 180, 86); stroke: rgb(13, 149, 44);"/><text text-anchor="middle" dy="-15">#text</text></g><g class="node element" style="opacity: 1; font-size: 11px; font-weight: bold;" transform="translate(1143.75,160)"><circle r="10" style="stroke-width: 1.5px; fill: steelblue; stroke: rgb(53, 94, 149);"/><text text-anchor="middle" dy="-15">main</text></g><g class="node text indent" style="opacity: 1; font-size: 11px; font-weight: bold;" transform="translate(1143.75,240)"><circle r="10" style="stroke-width: 1.5px; fill: rgb(255, 204, 0); stroke: orange;"/><text text-anchor="middle" dy="-15">#text</text></g><g class="node text indent" style="opacity: 1; font-size: 11px; font-weight: bold;" transform="translate(1193.75,160)"><circle r="10" style="stroke-width: 1.5px; fill: rgb(255, 204, 0); stroke: orange;"/><text text-anchor="middle" dy="-15">#text</text></g><g class="node text indent" style="opacity: 1; font-size: 11px; font-weight: bold;" transform="translate(-531.25,160)"><circle r="10" style="stroke-width: 1.5px; fill: rgb(255, 204, 0); stroke: orange;"/><text text-anchor="middle" dy="-15">#text</text></g><g class="node element" style="opacity: 1; font-size: 11px; font-weight: bold;" transform="translate(-481.25,160)"><circle r="10" style="stroke-width: 1.5px; fill: steelblue; stroke: rgb(53, 94, 149);"/><text text-anchor="middle" dy="-15">link</text></g><g class="node text indent" style="opacity: 1; font-size: 11px; font-weight: bold;" transform="translate(-431.25,160)"><circle r="10" style="stroke-width: 1.5px; fill: rgb(255, 204, 0); stroke: orange;"/><text text-anchor="middle" dy="-15">#text</text></g><g class="node element" style="opacity: 1; font-size: 11px; font-weight: bold;" transform="translate(-381.25,160)"><circle r="10" style="stroke-width: 1.5px; fill: steelblue; stroke: rgb(53, 94, 149);"/><text text-anchor="middle" dy="-15">link</text></g><g class="node text indent" style="opacity: 1; font-size: 11px; font-weight: bold;" transform="translate(-306.25,240)"><circle r="10" style="stroke-width: 1.5px; fill: rgb(255, 204, 0); stroke: orange;"/><text text-anchor="middle" dy="-15">#text</text></g><g class="node element" style="opacity: 1; font-size: 11px; font-weight: bold;" transform="translate(-256.25,240)"><circle r="10" style="stroke-width: 1.5px; fill: steelblue; stroke: rgb(53, 94, 149);"/><text text-anchor="middle" dy="-15">h1</text></g><g class="node text" style="opacity: 1; font-size: 11px; font-weight: bold;" transform="translate(-256.25,320)"><circle r="10" style="stroke-width: 1.5px; fill: rgb(80, 180, 86); stroke: rgb(13, 149, 44);"/><text text-anchor="middle" dy="-15">#text</text></g><g class="node text indent" style="opacity: 1; font-size: 11px; font-weight: bold;" transform="translate(-181.25,240)"><circle r="10" style="stroke-width: 1.5px; fill: rgb(255, 204, 0); stroke: orange;"/><text text-anchor="middle" dy="-15">#text</text></g><g class="node element" style="opacity: 1; font-size: 11px; font-weight: bold;" transform="translate(-106.25,240)"><circle r="10" style="stroke-width: 1.5px; fill: steelblue; stroke: rgb(53, 94, 149);"/><text text-anchor="middle" dy="-15">nav</text></g><g class="node text indent" style="opacity: 1; font-size: 11px; font-weight: bold;" transform="translate(-156.25,320)"><circle r="10" style="stroke-width: 1.5px; fill: rgb(255, 204, 0); stroke: orange;"/><text text-anchor="middle" dy="-15">#text</text></g><g class="node element" style="opacity: 1; font-size: 11px; font-weight: bold;" transform="translate(-106.25,320)"><circle r="10" style="stroke-width: 1.5px; fill: steelblue; stroke: rgb(53, 94, 149);"/><text text-anchor="middle" dy="-15">ul</text></g><g class="node text indent" style="opacity: 1; font-size: 11px; font-weight: bold;" transform="translate(-106.25,400)"><circle r="10" style="stroke-width: 1.5px; fill: rgb(255, 204, 0); stroke: orange;"/><text text-anchor="middle" dy="-15">#text</text></g><g class="node element" style="opacity: 1; font-size: 11px; font-weight: bold;" transform="translate(-56.25,400)"><circle r="10" style="stroke-width: 1.5px; fill: steelblue; stroke: rgb(53, 94, 149);"/><text text-anchor="middle" dy="-15">li</text></g><g class="node element" style="opacity: 1; font-size: 11px; font-weight: bold;" transform="translate(-56.25,480)"><circle r="10" style="stroke-width: 1.5px; fill: steelblue; stroke: rgb(53, 94, 149);"/><text text-anchor="middle" dy="-15">a</text></g><g class="node text" style="opacity: 1; font-size: 11px; font-weight: bold;" transform="translate(-56.25,560)"><circle r="10" style="stroke-width: 1.5px; fill: rgb(80, 180, 86); stroke: rgb(13, 149, 44);"/><text text-anchor="middle" dy="-15">#text</text></g><g class="node text indent" style="opacity: 1; font-size: 11px; font-weight: bold;" transform="translate(-6.25,400)"><circle r="10" style="stroke-width: 1.5px; fill: rgb(255, 204, 0); stroke: orange;"/><text text-anchor="middle" dy="-15">#text</text></g><g class="node text indent" style="opacity: 1; font-size: 11px; font-weight: bold;" transform="translate(-56.25,320)"><circle r="10" style="stroke-width: 1.5px; fill: rgb(255, 204, 0); stroke: orange;"/><text text-anchor="middle" dy="-15">#text</text></g><g class="node element" style="opacity: 1; font-size: 11px; font-weight: bold;" transform="translate(1093.75,240)"><circle r="10" style="stroke-width: 1.5px; fill: steelblue; stroke: rgb(53, 94, 149);"/><text text-anchor="middle" dy="-15">form#formReserva</text></g><g class="node text indent" style="opacity: 1; font-size: 11px; font-weight: bold;" transform="translate(-206.25,400)"><circle r="10" style="stroke-width: 1.5px; fill: rgb(255, 204, 0); stroke: orange;"/><text text-anchor="middle" dy="-15">#text</text></g><g class="node element" style="opacity: 1; font-size: 11px; font-weight: bold;" transform="translate(-156.25,400)"><circle r="10" style="stroke-width: 1.5px; fill: steelblue; stroke: rgb(53, 94, 149);"/><text text-anchor="middle" dy="-15">li</text></g><g class="node element" style="opacity: 1; font-size: 11px; font-weight: bold;" transform="translate(-156.25,480)"><circle r="10" style="stroke-width: 1.5px; fill: steelblue; stroke: rgb(53, 94, 149);"/><text text-anchor="middle" dy="-15">a</text></g><g class="node text" style="opacity: 1; font-size: 11px; font-weight: bold;" transform="translate(-156.25,560)"><circle r="10" style="stroke-width: 1.5px; fill: rgb(80, 180, 86); stroke: rgb(13, 149, 44);"/><text text-anchor="middle" dy="-15">#text</text></g><g class="node text indent" style="opacity: 1; font-size: 11px; font-weight: bold;" transform="translate(1043.75,320)"><circle r="10" style="stroke-width: 1.5px; fill: rgb(255, 204, 0); stroke: orange;"/><text text-anchor="middle" dy="-15">#text</text></g><g class="node text indent" style="opacity: 1; font-size: 11px; font-weight: bold;" transform="translate(1743.75,320)"><circle r="10" style="stroke-width: 1.5px; fill: rgb(255, 204, 0); stroke: orange;"/><text text-anchor="middle" dy="-15">#text</text></g><g class="node text indent" style="opacity: 1; font-size: 11px; font-weight: bold;" transform="translate(1043.75,240)"><circle r="10" style="stroke-width: 1.5px; fill: rgb(255, 204, 0); stroke: orange;"/><text text-anchor="middle" dy="-15">#text</text></g><g class="node text indent" style="opacity: 1; font-size: 11px; font-weight: bold;" transform="translate(-731.25,160)"><circle r="10" style="stroke-width: 1.5px; fill: rgb(255, 204, 0); stroke: orange;"/><text text-anchor="middle" dy="-15">#text</text></g><g class="node element" style="opacity: 1; font-size: 11px; font-weight: bold;" transform="translate(1893.75,320)"><circle r="10" style="stroke-width: 1.5px; fill: steelblue; stroke: rgb(53, 94, 149);"/><text text-anchor="middle" dy="-15">label</text></g><g class="node text indent" style="opacity: 1; font-size: 11px; font-weight: bold;" transform="translate(2043.75,320)"><circle r="10" style="stroke-width: 1.5px; fill: rgb(255, 204, 0); stroke: orange;"/><text text-anchor="middle" dy="-15">#text</text></g><g class="node text indent" style="opacity: 1; font-size: 11px; font-weight: bold;" transform="translate(2143.75,320)"><circle r="10" style="stroke-width: 1.5px; fill: rgb(255, 204, 0); stroke: orange;"/><text text-anchor="middle" dy="-15">#text</text></g><g class="node element" style="opacity: 1; font-size: 11px; font-weight: bold;" transform="translate(1243.75,160)"><circle r="10" style="stroke-width: 1.5px; fill: steelblue; stroke: rgb(53, 94, 149);"/><text text-anchor="middle" dy="-15">script</text></g><g class="node text indent" style="opacity: 1; font-size: 11px; font-weight: bold;" transform="translate(1293.75,160)"><circle r="10" style="stroke-width: 1.5px; fill: rgb(255, 204, 0); stroke: orange;"/><text text-anchor="middle" dy="-15">#text</text></g><g class="node element" style="opacity: 1; font-size: 11px; font-weight: bold;" transform="translate(-681.25,160)"><circle r="10" style="stroke-width: 1.5px; fill: steelblue; stroke: rgb(53, 94, 149);"/><text text-anchor="middle" dy="-15">meta</text></g><g class="node text indent" style="opacity: 1; font-size: 11px; font-weight: bold;" transform="translate(481.25,160)"><circle r="10" style="stroke-width: 1.5px; fill: rgb(255, 204, 0); stroke: orange;"/><text text-anchor="middle" dy="-15">#text</text></g><g class="node text indent" style="opacity: 1; font-size: 11px; font-weight: bold;" transform="translate(43.75,320)"><circle r="10" style="stroke-width: 1.5px; fill: rgb(255, 204, 0); stroke: orange;"/><text text-anchor="middle" dy="-15">#text</text></g><g class="node element" style="opacity: 1; font-size: 11px; font-weight: bold;" transform="translate(93.75,320)"><circle r="10" style="stroke-width: 1.5px; fill: steelblue; stroke: rgb(53, 94, 149);"/><text text-anchor="middle" dy="-15">label</text></g><g class="node text" style="opacity: 1; font-size: 11px; font-weight: bold;" transform="translate(93.75,400)"><circle r="10" style="stroke-width: 1.5px; fill: rgb(80, 180, 86); stroke: rgb(13, 149, 44);"/><text text-anchor="middle" dy="-15">#text</text></g><g class="node text indent" style="opacity: 1; font-size: 11px; font-weight: bold;" transform="translate(243.75,320)"><circle r="10" style="stroke-width: 1.5px; fill: rgb(255, 204, 0); stroke: orange;"/><text text-anchor="middle" dy="-15">#text</text></g><g class="node element" style="opacity: 1; font-size: 11px; font-weight: bold;" transform="translate(293.75,320)"><circle r="10" style="stroke-width: 1.5px; fill: steelblue; stroke: rgb(53, 94, 149);"/><text text-anchor="middle" dy="-15">label</text></g><g class="node text" style="opacity: 1; font-size: 11px; font-weight: bold;" transform="translate(293.75,400)"><circle r="10" style="stroke-width: 1.5px; fill: rgb(80, 180, 86); stroke: rgb(13, 149, 44);"/><text text-anchor="middle" dy="-15">#text</text></g><g class="node text indent" style="opacity: 1; font-size: 11px; font-weight: bold;" transform="translate(543.75,320)"><circle r="10" style="stroke-width: 1.5px; fill: rgb(255, 204, 0); stroke: orange;"/><text text-anchor="middle" dy="-15">#text</text></g><g class="node element" style="opacity: 1; font-size: 11px; font-weight: bold;" transform="translate(693.75,320)"><circle r="10" style="stroke-width: 1.5px; fill: steelblue; stroke: rgb(53, 94, 149);"/><text text-anchor="middle" dy="-15">label</text></g><g class="node text" style="opacity: 1; font-size: 11px; font-weight: bold;" transform="translate(693.75,400)"><circle r="10" style="stroke-width: 1.5px; fill: rgb(80, 180, 86); stroke: rgb(13, 149, 44);"/><text text-anchor="middle" dy="-15">#text</text></g><g class="node element" style="opacity: 1; font-size: 11px; font-weight: bold;" transform="translate(1093.75,320)"><circle r="10" style="stroke-width: 1.5px; fill: steelblue; stroke: rgb(53, 94, 149);"/><text text-anchor="middle" dy="-15">label</text></g><g class="node text" style="opacity: 1; font-size: 11px; font-weight: bold;" transform="translate(1093.75,400)"><circle r="10" style="stroke-width: 1.5px; fill: rgb(80, 180, 86); stroke: rgb(13, 149, 44);"/><text text-anchor="middle" dy="-15">#text</text></g><g class="node text indent" style="opacity: 1; font-size: 11px; font-weight: bold;" transform="translate(1443.75,320)"><circle r="10" style="stroke-width: 1.5px; fill: rgb(255, 204, 0); stroke: orange;"/><text text-anchor="middle" dy="-15">#text</text></g><g class="node element" style="opacity: 1; font-size: 11px; font-weight: bold;" transform="translate(1593.75,320)"><circle r="10" style="stroke-width: 1.5px; fill: steelblue; stroke: rgb(53, 94, 149);"/><text text-anchor="middle" dy="-15">select#tipoHabitacion</text></g><g class="node text" style="opacity: 1; font-size: 11px; font-weight: bold;" transform="translate(1393.75,400)"><circle r="10" style="stroke-width: 1.5px; fill: rgb(80, 180, 86); stroke: rgb(13, 149, 44);"/><text text-anchor="middle" dy="-15">#text</text></g><g class="node text indent" style="opacity: 1; font-size: 11px; font-weight: bold;" transform="translate(1793.75,400)"><circle r="10" style="stroke-width: 1.5px; fill: rgb(255, 204, 0); stroke: orange;"/><text text-anchor="middle" dy="-15">#text</text></g><g class="node text" style="opacity: 1; font-size: 11px; font-weight: bold;" transform="translate(1893.75,400)"><circle r="10" style="stroke-width: 1.5px; fill: rgb(80, 180, 86); stroke: rgb(13, 149, 44);"/><text text-anchor="middle" dy="-15">#text</text></g><g class="node element" style="opacity: 1; font-size: 11px; font-weight: bold;" transform="translate(2093.75,320)"><circle r="10" style="stroke-width: 1.5px; fill: steelblue; stroke: rgb(53, 94, 149);"/><text text-anchor="middle" dy="-15">div.botones-form</text></g><g class="node text indent" style="opacity: 1; font-size: 11px; font-weight: bold;" transform="translate(1993.75,400)"><circle r="10" style="stroke-width: 1.5px; fill: rgb(255, 204, 0); stroke: orange;"/><text text-anchor="middle" dy="-15">#text</text></g><g class="node element" style="opacity: 1; font-size: 11px; font-weight: bold;" transform="translate(2043.75,400)"><circle r="10" style="stroke-width: 1.5px; fill: steelblue; stroke: rgb(53, 94, 149);"/><text text-anchor="middle" dy="-15">button.btn.btn-primario</text></g><g class="node text" style="opacity: 1; font-size: 11px; font-weight: bold;" transform="translate(2043.75,480)"><circle r="10" style="stroke-width: 1.5px; fill: rgb(80, 180, 86); stroke: rgb(13, 149, 44);"/><text text-anchor="middle" dy="-15">#text</text></g><g class="node text indent" style="opacity: 1; font-size: 11px; font-weight: bold;" transform="translate(2093.75,400)"><circle r="10" style="stroke-width: 1.5px; fill: rgb(255, 204, 0); stroke: orange;"/><text text-anchor="middle" dy="-15">#text</text></g><g class="node element" style="opacity: 1; font-size: 11px; font-weight: bold;" transform="translate(2143.75,400)"><circle r="10" style="stroke-width: 1.5px; fill: steelblue; stroke: rgb(53, 94, 149);"/><text text-anchor="middle" dy="-15">button.btn.btn-secundario</text></g><g class="node text" style="opacity: 1; font-size: 11px; font-weight: bold;" transform="translate(2143.75,480)"><circle r="10" style="stroke-width: 1.5px; fill: rgb(80, 180, 86); stroke: rgb(13, 149, 44);"/><text text-anchor="middle" dy="-15">#text</text></g><g class="node text indent" style="opacity: 1; font-size: 11px; font-weight: bold;" transform="translate(2193.75,400)"><circle r="10" style="stroke-width: 1.5px; fill: rgb(255, 204, 0); stroke: orange;"/><text text-anchor="middle" dy="-15">#text</text></g><g class="node element" style="opacity: 1; font-size: 11px; font-weight: bold;" transform="translate(1193.75,240)"><circle r="10" style="stroke-width: 1.5px; fill: steelblue; stroke: rgb(53, 94, 149);"/><text text-anchor="middle" dy="-15">p#mensajeReserva</text></g><g class="node text indent" style="opacity: 1; font-size: 11px; font-weight: bold;" transform="translate(1243.75,240)"><circle r="10" style="stroke-width: 1.5px; fill: rgb(255, 204, 0); stroke: orange;"/><text text-anchor="middle" dy="-15">#text</text></g><g class="node text indent" style="opacity: 1; font-size: 11px; font-weight: bold;" transform="translate(143.75,320)"><circle r="10" style="stroke-width: 1.5px; fill: rgb(255, 204, 0); stroke: orange;"/><text text-anchor="middle" dy="-15">#text</text></g><g class="node element" style="opacity: 1; font-size: 11px; font-weight: bold;" transform="translate(193.75,320)"><circle r="10" style="stroke-width: 1.5px; fill: steelblue; stroke: rgb(53, 94, 149);"/><text text-anchor="middle" dy="-15">input#nombreReserva</text></g><g class="node text indent" style="opacity: 1; font-size: 11px; font-weight: bold;" transform="translate(343.75,320)"><circle r="10" style="stroke-width: 1.5px; fill: rgb(255, 204, 0); stroke: orange;"/><text text-anchor="middle" dy="-15">#text</text></g><g class="node element" style="opacity: 1; font-size: 11px; font-weight: bold;" transform="translate(393.75,320)"><circle r="10" style="stroke-width: 1.5px; fill: steelblue; stroke: rgb(53, 94, 149);"/><text text-anchor="middle" dy="-15">input#correoReserva</text></g><g class="node text indent" style="opacity: 1; font-size: 11px; font-weight: bold;" transform="translate(443.75,320)"><circle r="10" style="stroke-width: 1.5px; fill: rgb(255, 204, 0); stroke: orange;"/><text text-anchor="middle" dy="-15">#text</text></g><g class="node element" style="opacity: 1; font-size: 11px; font-weight: bold;" transform="translate(493.75,320)"><circle r="10" style="stroke-width: 1.5px; fill: steelblue; stroke: rgb(53, 94, 149);"/><text text-anchor="middle" dy="-15">label</text></g><g class="node text" style="opacity: 1; font-size: 11px; font-weight: bold;" transform="translate(493.75,400)"><circle r="10" style="stroke-width: 1.5px; fill: rgb(80, 180, 86); stroke: rgb(13, 149, 44);"/><text text-anchor="middle" dy="-15">#text</text></g><g class="node element" style="opacity: 1; font-size: 11px; font-weight: bold;" transform="translate(593.75,320)"><circle r="10" style="stroke-width: 1.5px; fill: steelblue; stroke: rgb(53, 94, 149);"/><text text-anchor="middle" dy="-15">input#telefonoReserva</text></g><g class="node text indent" style="opacity: 1; font-size: 11px; font-weight: bold;" transform="translate(643.75,320)"><circle r="10" style="stroke-width: 1.5px; fill: rgb(255, 204, 0); stroke: orange;"/><text text-anchor="middle" dy="-15">#text</text></g><g class="node text indent" style="opacity: 1; font-size: 11px; font-weight: bold;" transform="translate(743.75,320)"><circle r="10" style="stroke-width: 1.5px; fill: rgb(255, 204, 0); stroke: orange;"/><text text-anchor="middle" dy="-15">#text</text></g><g class="node element" style="opacity: 1; font-size: 11px; font-weight: bold;" transform="translate(793.75,320)"><circle r="10" style="stroke-width: 1.5px; fill: steelblue; stroke: rgb(53, 94, 149);"/><text text-anchor="middle" dy="-15">input#documentoReserva</text></g><g class="node text indent" style="opacity: 1; font-size: 11px; font-weight: bold;" transform="translate(843.75,320)"><circle r="10" style="stroke-width: 1.5px; fill: rgb(255, 204, 0); stroke: orange;"/><text text-anchor="middle" dy="-15">#text</text></g><g class="node element" style="opacity: 1; font-size: 11px; font-weight: bold;" transform="translate(893.75,320)"><circle r="10" style="stroke-width: 1.5px; fill: steelblue; stroke: rgb(53, 94, 149);"/><text text-anchor="middle" dy="-15">label</text></g><g class="node text" style="opacity: 1; font-size: 11px; font-weight: bold;" transform="translate(893.75,400)"><circle r="10" style="stroke-width: 1.5px; fill: rgb(80, 180, 86); stroke: rgb(13, 149, 44);"/><text text-anchor="middle" dy="-15">#text</text></g><g class="node text indent" style="opacity: 1; font-size: 11px; font-weight: bold;" transform="translate(943.75,320)"><circle r="10" style="stroke-width: 1.5px; fill: rgb(255, 204, 0); stroke: orange;"/><text text-anchor="middle" dy="-15">#text</text></g><g class="node element" style="opacity: 1; font-size: 11px; font-weight: bold;" transform="translate(993.75,320)"><circle r="10" style="stroke-width: 1.5px; fill: steelblue; stroke: rgb(53, 94, 149);"/><text text-anchor="middle" dy="-15">input#fechaEntrada</text></g><g class="node text indent" style="opacity: 1; font-size: 11px; font-weight: bold;" transform="translate(1143.75,320)"><circle r="10" style="stroke-width: 1.5px; fill: rgb(255, 204, 0); stroke: orange;"/><text text-anchor="middle" dy="-15">#text</text></g><g class="node element" style="opacity: 1; font-size: 11px; font-weight: bold;" transform="translate(1193.75,320)"><circle r="10" style="stroke-width: 1.5px; fill: steelblue; stroke: rgb(53, 94, 149);"/><text text-anchor="middle" dy="-15">input#fechaSalida</text></g><g class="node text indent" style="opacity: 1; font-size: 11px; font-weight: bold;" transform="translate(1243.75,320)"><circle r="10" style="stroke-width: 1.5px; fill: rgb(255, 204, 0); stroke: orange;"/><text text-anchor="middle" dy="-15">#text</text></g><g class="node element" style="opacity: 1; font-size: 11px; font-weight: bold;" transform="translate(1293.75,320)"><circle r="10" style="stroke-width: 1.5px; fill: steelblue; stroke: rgb(53, 94, 149);"/><text text-anchor="middle" dy="-15">label</text></g><g class="node text" style="opacity: 1; font-size: 11px; font-weight: bold;" transform="translate(1293.75,400)"><circle r="10" style="stroke-width: 1.5px; fill: rgb(80, 180, 86); stroke: rgb(13, 149, 44);"/><text text-anchor="middle" dy="-15">#text</text></g><g class="node element" style="opacity: 1; font-size: 11px; font-weight: bold;" transform="translate(1443.75,400)"><circle r="10" style="stroke-width: 1.5px; fill: steelblue; stroke: rgb(53, 94, 149);"/><text text-anchor="middle" dy="-15">option</text></g><g class="node text" style="opacity: 1; font-size: 11px; font-weight: bold;" transform="translate(1443.75,480)"><circle r="10" style="stroke-width: 1.5px; fill: rgb(80, 180, 86); stroke: rgb(13, 149, 44);"/><text text-anchor="middle" dy="-15">#text</text></g><g class="node text indent" style="opacity: 1; font-size: 11px; font-weight: bold;" transform="translate(1493.75,400)"><circle r="10" style="stroke-width: 1.5px; fill: rgb(255, 204, 0); stroke: orange;"/><text text-anchor="middle" dy="-15">#text</text></g><g class="node element" style="opacity: 1; font-size: 11px; font-weight: bold;" transform="translate(1543.75,400)"><circle r="10" style="stroke-width: 1.5px; fill: steelblue; stroke: rgb(53, 94, 149);"/><text text-anchor="middle" dy="-15">option</text></g><g class="node text" style="opacity: 1; font-size: 11px; font-weight: bold;" transform="translate(1543.75,480)"><circle r="10" style="stroke-width: 1.5px; fill: rgb(80, 180, 86); stroke: rgb(13, 149, 44);"/><text text-anchor="middle" dy="-15">#text</text></g><g class="node text indent" style="opacity: 1; font-size: 11px; font-weight: bold;" transform="translate(1593.75,400)"><circle r="10" style="stroke-width: 1.5px; fill: rgb(255, 204, 0); stroke: orange;"/><text text-anchor="middle" dy="-15">#text</text></g><g class="node element" style="opacity: 1; font-size: 11px; font-weight: bold;" transform="translate(1643.75,400)"><circle r="10" style="stroke-width: 1.5px; fill: steelblue; stroke: rgb(53, 94, 149);"/><text text-anchor="middle" dy="-15">option</text></g><g class="node text" style="opacity: 1; font-size: 11px; font-weight: bold;" transform="translate(1643.75,480)"><circle r="10" style="stroke-width: 1.5px; fill: rgb(80, 180, 86); stroke: rgb(13, 149, 44);"/><text text-anchor="middle" dy="-15">#text</text></g><g class="node text indent" style="opacity: 1; font-size: 11px; font-weight: bold;" transform="translate(1693.75,400)"><circle r="10" style="stroke-width: 1.5px; fill: rgb(255, 204, 0); stroke: orange;"/><text text-anchor="middle" dy="-15">#text</text></g><g class="node element" style="opacity: 1; font-size: 11px; font-weight: bold;" transform="translate(1743.75,400)"><circle r="10" style="stroke-width: 1.5px; fill: steelblue; stroke: rgb(53, 94, 149);"/><text text-anchor="middle" dy="-15">option</text></g><g class="node text" style="opacity: 1; font-size: 11px; font-weight: bold;" transform="translate(1743.75,480)"><circle r="10" style="stroke-width: 1.5px; fill: rgb(80, 180, 86); stroke: rgb(13, 149, 44);"/><text text-anchor="middle" dy="-15">#text</text></g><g class="node text indent" style="opacity: 1; font-size: 11px; font-weight: bold;" transform="translate(1943.75,320)"><circle r="10" style="stroke-width: 1.5px; fill: rgb(255, 204, 0); stroke: orange;"/><text text-anchor="middle" dy="-15">#text</text></g><g class="node element" style="opacity: 1; font-size: 11px; font-weight: bold;" transform="translate(1993.75,320)"><circle r="10" style="stroke-width: 1.5px; fill: steelblue; stroke: rgb(53, 94, 149);"/><text text-anchor="middle" dy="-15">input#personas</text></g></g></svg>